<svg width="24" height="24" viewBox="0 0 24 24" fill="none" xmlns="http://www.w3.org/2000/svg">
<path d="M19.4643 22.6515C18.8487 21.6868 17.9732 19.7627 19.7235 17.4862C21.1252 15.8252 22 13.8125 22 11.6252C22 6.28597 17.277 2 11.5 2C5.72303 2 1 6.37522 1 11.6252C1 16.8752 5.72303 21.0759 11.5 21.0759C12.8125 21.1605 14.0357 20.9013 15.2636 20.5489C15.4382 20.4643 15.5274 20.5489 15.7013 20.6382C16.0894 21.2527 16.6008 21.7799 17.2032 22.1865C17.8057 22.5931 18.486 22.8701 19.2011 23C19.375 23 19.7235 23 19.4643 22.6515Z" stroke="#24282A" stroke-width="2"/>
<path d="M11.4015 8.06521C11.4411 7.97826 11.5589 7.97826 11.5985 8.06521L12.5743 10.212C12.5902 10.247 12.6219 10.2712 12.6585 10.2763L14.905 10.5871C14.996 10.5997 15.0324 10.7174 14.9659 10.7838L13.3225 12.4215C13.2957 12.4481 13.2836 12.4873 13.2903 12.5254L13.7029 14.8643C13.7196 14.9591 13.6242 15.0318 13.5436 14.9859L11.552 13.8512C11.5196 13.8327 11.4804 13.8327 11.448 13.8512L9.45643 14.9859C9.37578 15.0318 9.2804 14.9591 9.29711 14.8643L9.70968 12.5254C9.7164 12.4873 9.7043 12.4481 9.67751 12.4215L8.03411 10.7838C7.96756 10.7174 8.00399 10.5997 8.09497 10.5871L10.3415 10.2763C10.3781 10.2712 10.4098 10.247 10.4257 10.212L11.4015 8.06521Z" fill="#24282A" stroke="#24282A" stroke-width="2"/>
</svg>
