
<svg width="15" height="22" viewBox="0 0 15 22" fill="none" xmlns="http://www.w3.org/2000/svg">
<path d="M8.20711 8.89949L11.0962 6.01041C11.7262 5.38044 11.28 4.3033 10.3891 4.3033L4.61091 4.3033C3.72001 4.3033 3.27384 5.38044 3.90381 6.01041L6.79289 8.89949C7.18342 9.29002 7.81658 9.29002 8.20711 8.89949Z" fill="#24282A"/>
<path d="M6.08725 7.61078C6.05213 7.01625 6.52044 6.50049 7.11601 6.50049H7.88399C8.47956 6.50049 8.94787 7.01625 8.91275 7.61078C8.80427 9.44713 8.74151 13.1474 9.75 15.5005C10.3797 16.9699 11.6238 18.418 12.7429 19.5234C13.4268 20.1989 12.9579 21.5005 11.9965 21.5005H3.00348C2.04211 21.5005 1.57318 20.1989 2.25714 19.5234C3.37619 18.418 4.62025 16.9699 5.25 15.5005C6.25849 13.1474 6.19573 9.44713 6.08725 7.61078Z" fill="#24282A"/>
<rect x="4.5" y="9.50098" width="6" height="1.5" rx="0.75" fill="#24282A"/>
<circle cx="7.5" cy="2" r="1.5" fill="#24282A"/>
</svg>
