<svg width="17" height="16" viewBox="0 0 17 16" fill="none" xmlns="http://www.w3.org/2000/svg">
<path d="M13.4303 13.7843C13.0492 13.1871 12.5073 11.996 13.5907 10.5867C14.4585 9.55847 15 8.3125 15 6.95847C15 3.65322 12.0762 1 8.5 1C4.92378 1 2 3.70847 2 6.95847C2 10.2085 4.92378 12.8089 8.5 12.8089C9.3125 12.8613 10.0697 12.7008 10.8298 12.4827C10.9379 12.4303 10.9932 12.4827 11.1008 12.5379C11.341 12.9183 11.6576 13.2447 12.0306 13.4964C12.4035 13.7481 12.8247 13.9196 13.2673 14C13.375 14 13.5907 14 13.4303 13.7843Z" stroke="white" stroke-width="1.4"/>
<path d="M8.40975 4.18914C8.44597 4.11322 8.55403 4.11322 8.59025 4.18914L9.19666 5.45997C9.21124 5.49052 9.24029 5.51162 9.27385 5.51605L10.6699 5.70007C10.7533 5.71106 10.7867 5.81383 10.7257 5.87174L9.70441 6.84118C9.67986 6.86448 9.66876 6.89863 9.67493 6.93191L9.93131 8.31648C9.94662 8.39919 9.8592 8.4627 9.78528 8.42258L8.5477 7.75089C8.51795 7.73474 8.48205 7.73474 8.4523 7.75089L7.21472 8.42258C7.1408 8.4627 7.05338 8.39919 7.06869 8.31648L7.32507 6.93191C7.33124 6.89863 7.32014 6.86448 7.29559 6.84118L6.27435 5.87174C6.21335 5.81383 6.24674 5.71106 6.33013 5.70007L7.72615 5.51605C7.75971 5.51162 7.78876 5.49052 7.80334 5.45997L8.40975 4.18914Z" fill="white" stroke="white"/>
</svg>
