<svg width="23" height="23" viewBox="0 0 23 23" fill="none" xmlns="http://www.w3.org/2000/svg">
<path d="M19.4643 21.6515C18.8487 20.6868 17.9732 18.7627 19.7235 16.4862C21.1252 14.8252 22 12.8125 22 10.6252C22 5.28597 17.277 1 11.5 1C5.72303 1 1 5.37522 1 10.6252C1 15.8752 5.72303 20.0759 11.5 20.0759C12.8125 20.1605 14.0357 19.9013 15.2636 19.5489C15.4382 19.4643 15.5274 19.5489 15.7013 19.6382C16.0894 20.2527 16.6008 20.7799 17.2032 21.1865C17.8057 21.5931 18.486 21.8701 19.2011 22C19.375 22 19.7235 22 19.4643 21.6515Z" stroke="#24282A" stroke-width="2"/>
<path d="M11.4015 7.06521C11.4411 6.97826 11.5589 6.97826 11.5985 7.06521L12.5743 9.21205C12.5902 9.24704 12.6219 9.27121 12.6585 9.27627L14.905 9.58714C14.996 9.59973 15.0324 9.71744 14.9659 9.78376L13.3225 11.4215C13.2957 11.4481 13.2836 11.4873 13.2903 11.5254L13.7029 13.8643C13.7196 13.9591 13.6242 14.0318 13.5436 13.9859L11.552 12.8512C11.5196 12.8327 11.4804 12.8327 11.448 12.8512L9.45643 13.9859C9.37578 14.0318 9.2804 13.9591 9.29711 13.8643L9.70968 11.5254C9.7164 11.4873 9.7043 11.4481 9.67751 11.4215L8.03411 9.78376C7.96756 9.71744 8.00399 9.59973 8.09497 9.58714L10.3415 9.27627C10.3781 9.27121 10.4098 9.24704 10.4257 9.21205L11.4015 7.06521Z" fill="#24282A" stroke="#24282A" stroke-width="2"/>
</svg>
