<svg width="17" height="16" viewBox="0 0 17 16" fill="none" xmlns="http://www.w3.org/2000/svg">
<g clip-path="url(#clip0)">
<path d="M15.8337 12.6667C15.8337 13.0203 15.6932 13.3594 15.4431 13.6095C15.1931 13.8595 14.8539 14 14.5003 14H2.50033C2.1467 14 1.80756 13.8595 1.55752 13.6095C1.30747 13.3594 1.16699 13.0203 1.16699 12.6667V5.33333C1.16699 4.97971 1.30747 4.64057 1.55752 4.39052C1.80756 4.14048 2.1467 4 2.50033 4H5.16699L6.50033 2H10.5003L11.8337 4H14.5003C14.8539 4 15.1931 4.14048 15.4431 4.39052C15.6932 4.64057 15.8337 4.97971 15.8337 5.33333V12.6667Z" stroke="#24282A" stroke-width="2" stroke-linecap="round" stroke-linejoin="round"/>
<path d="M8.49967 11.3333C9.97243 11.3333 11.1663 10.1394 11.1663 8.66667C11.1663 7.19391 9.97243 6 8.49967 6C7.02692 6 5.83301 7.19391 5.83301 8.66667C5.83301 10.1394 7.02692 11.3333 8.49967 11.3333Z" stroke="#24282A" stroke-width="2" stroke-linecap="round" stroke-linejoin="round"/>
</g>
<defs>
<clipPath id="clip0">
<rect width="16" height="16" fill="white" transform="translate(0.5)"/>
</clipPath>
</defs>
</svg>
