<svg width="16" height="18" viewBox="0 0 16 18" fill="none" xmlns="http://www.w3.org/2000/svg">
<path d="M4.69716 1.66643C4.69716 1.45705 4.76033 1.25624 4.87277 1.10818C4.98522 0.96013 5.13772 0.876953 5.29674 0.876953H10.0934C10.2524 0.876953 10.4049 0.96013 10.5174 1.10818C10.6298 1.25624 10.693 1.45705 10.693 1.66643C10.693 1.87581 10.6298 2.07661 10.5174 2.22467C10.4049 2.37272 10.2524 2.4559 10.0934 2.4559H5.29674C5.13772 2.4559 4.98522 2.37272 4.87277 2.22467C4.76033 2.07661 4.69716 1.87581 4.69716 1.66643Z" fill="#24282A"/>
<path fill-rule="evenodd" clip-rule="evenodd" d="M12.7827 15.3746C14.132 14.0421 14.89 12.2348 14.89 10.3504C14.89 8.46595 14.132 6.6587 12.7827 5.3262C11.4333 3.99371 9.60325 3.24512 7.69501 3.24512C5.78678 3.24512 3.9567 3.99371 2.60737 5.3262C1.25804 6.6587 0.5 8.46595 0.5 10.3504C0.5 12.2348 1.25804 14.0421 2.60737 15.3746C3.9567 16.7071 5.78678 17.4556 7.69501 17.4556C9.60325 17.4556 11.4333 16.7071 12.7827 15.3746ZM7.32669 5.79861C7.47475 5.68017 7.67555 5.61363 7.88493 5.61363C8.09431 5.61363 8.29512 5.68017 8.44317 5.79861C8.59123 5.91706 8.67441 6.0777 8.67441 6.24521V11.2978C8.67441 11.4653 8.59123 11.626 8.44317 11.7444C8.29512 11.8629 8.09431 11.9294 7.88493 11.9294C7.67555 11.9294 7.47475 11.8629 7.32669 11.7444C7.17864 11.626 7.09546 11.4653 7.09546 11.2978V6.24521C7.09546 6.0777 7.17864 5.91706 7.32669 5.79861Z" fill="#24282A"/>
<path d="M13.6345 2.82139C13.5792 2.76484 13.513 2.71973 13.4399 2.6887C13.3667 2.65766 13.2881 2.64133 13.2084 2.64065C13.1288 2.63996 13.0499 2.65495 12.9762 2.68472C12.9025 2.71449 12.8356 2.75845 12.7793 2.81405C12.723 2.86964 12.6784 2.93575 12.6483 3.00852C12.6182 3.08129 12.603 3.15926 12.6037 3.23787C12.6044 3.31649 12.6209 3.39419 12.6523 3.46643C12.6838 3.53867 12.7294 3.604 12.7867 3.65862L14.4691 5.32007C14.5244 5.37662 14.5906 5.42173 14.6638 5.45276C14.7369 5.48379 14.8156 5.50013 14.8952 5.50081C14.9748 5.5015 15.0538 5.48651 15.1274 5.45674C15.2011 5.42697 15.2681 5.383 15.3244 5.32741C15.3807 5.27182 15.4252 5.20571 15.4553 5.13294C15.4855 5.06017 15.5007 4.9822 15.5 4.90358C15.4993 4.82496 15.4827 4.74727 15.4513 4.67503C15.4199 4.60279 15.3742 4.53745 15.3169 4.48283L13.6345 2.82139Z" fill="#24282A"/>
</svg>
