<svg width="11" height="13" viewBox="0 0 11 13" fill="none" xmlns="http://www.w3.org/2000/svg">
<path d="M5.50002 0.0834961C2.52401 0.0868027 0.112315 2.4985 0.109009 5.47451V6.69248C0.109009 9.66985 2.52266 12.0835 5.50002 12.0835C8.47739 12.0835 10.891 9.66985 10.891 6.69248V5.47451C10.8877 2.4985 8.47603 0.0868027 5.50002 0.0834961Z" fill="#FE9C72"/>
<path d="M5.50002 0.0834961C2.52401 0.0868027 0.112315 2.4985 0.109009 5.47451V6.69248C0.109009 9.66985 2.52266 12.0835 5.50002 12.0835C8.47739 12.0835 10.891 9.66985 10.891 6.69248V5.47451C10.8877 2.4985 8.47603 0.0868027 5.50002 0.0834961ZM5.50002 11.6642C3.17334 11.6643 1.15475 10.0579 0.632331 7.79065C1.52535 9.66939 3.41984 10.8665 5.50002 10.8665C7.58021 10.8665 9.47467 9.66937 10.3677 7.79065C9.8453 10.0579 7.8267 11.6643 5.50002 11.6642Z" fill="#FEC772"/>
<path d="M5.49995 1.28076C3.18421 1.28076 1.30695 3.15803 1.30695 5.47377C1.30695 7.7895 3.18421 9.66677 5.49995 9.66677C7.81568 9.66677 9.69295 7.7895 9.69295 5.47377C9.69031 3.15912 7.81459 1.2834 5.49995 1.28076Z" fill="#FE9C72"/>
<path d="M7.74872 4.41288L6.4449 4.23119L5.85947 3.09607C5.78977 2.96259 5.65165 2.87891 5.50107 2.87891C5.35049 2.87891 5.21237 2.96259 5.14267 3.09607L4.55365 4.23218L3.25261 4.41288C3.0987 4.43322 2.97052 4.54091 2.92395 4.68902C2.87696 4.83544 2.91945 4.99579 3.03275 5.09973L3.96619 5.96748L3.74296 7.20103C3.71605 7.34957 3.77591 7.50046 3.8973 7.59019C4.02005 7.68232 4.1845 7.69674 4.3214 7.62732L5.50183 7.03711L6.67807 7.62732C6.81491 7.69669 6.97928 7.6823 7.10196 7.59019C7.22338 7.50041 7.28323 7.34943 7.2563 7.20084L7.03488 5.9691L7.96812 5.09975C8.08159 4.99591 8.1242 4.83548 8.07715 4.68904C8.03064 4.54098 7.90256 4.43329 7.74872 4.41288Z" fill="#FFCF85"/>
<path d="M5.50002 0.0834961C2.52401 0.0868027 0.112315 2.4985 0.109009 5.47451V6.69248C0.109009 9.66985 2.52266 12.0835 5.50002 12.0835C8.47739 12.0835 10.891 9.66985 10.891 6.69248V5.47451C10.8877 2.4985 8.47603 0.0868027 5.50002 0.0834961ZM5.50002 11.6642C3.17334 11.6643 1.15475 10.0579 0.632331 7.79065C1.52535 9.66939 3.41984 10.8665 5.50002 10.8665C7.58021 10.8665 9.47467 9.66937 10.3677 7.79065C9.8453 10.0579 7.8267 11.6643 5.50002 11.6642ZM5.50002 10.4662C2.7432 10.4662 0.508346 8.23133 0.508346 5.47451C0.508346 2.71769 2.7432 0.482833 5.50002 0.482833C8.25685 0.482833 10.4917 2.71769 10.4917 5.47451C10.4886 8.23005 8.25559 10.4631 5.50002 10.4662Z" fill="#212121"/>
<path d="M5.49995 1.28076C3.18421 1.28076 1.30695 3.15803 1.30695 5.47376C1.30695 7.7895 3.18421 9.66677 5.49995 9.66677C7.81568 9.66677 9.69295 7.7895 9.69295 5.47376C9.69031 3.15912 7.81459 1.2834 5.49995 1.28076ZM5.49995 9.26743C3.40476 9.26743 1.70628 7.56893 1.70628 5.47376C1.70628 3.3786 3.40478 1.6801 5.49995 1.6801C7.59512 1.6801 9.29361 3.3786 9.29361 5.47376C9.29131 7.56801 7.59419 9.26512 5.49995 9.26743Z" fill="#212121"/>
<path d="M7.74872 4.41288L6.4449 4.23119L5.85947 3.09607C5.78977 2.96259 5.65165 2.87891 5.50107 2.87891C5.35049 2.87891 5.21237 2.96259 5.14267 3.09607L4.55365 4.23218L3.25261 4.41288C3.0987 4.43322 2.97052 4.54091 2.92395 4.68902C2.87696 4.83544 2.91945 4.99579 3.03275 5.09973L3.96619 5.96748L3.74296 7.20103C3.71605 7.34957 3.77591 7.50046 3.8973 7.59019C4.02005 7.68232 4.1845 7.69674 4.3214 7.62732L5.50183 7.03711L6.67807 7.62732C6.81491 7.69669 6.97928 7.6823 7.10196 7.59019C7.22338 7.50041 7.28323 7.34943 7.2563 7.20084L7.03488 5.9691L7.96812 5.09975C8.08159 4.99591 8.1242 4.83548 8.07714 4.68904C8.03064 4.54098 7.90256 4.43329 7.74872 4.41288ZM6.76295 5.67657C6.66328 5.76837 6.61753 5.90482 6.64175 6.03818L6.85739 7.27052L5.68196 6.68049C5.56751 6.623 5.43261 6.623 5.31816 6.68049L4.13692 7.27152L4.35834 6.03818C4.38254 5.90499 4.33698 5.76866 4.23754 5.67679L3.30649 4.80863L4.60731 4.62893C4.73686 4.61111 4.84972 4.53154 4.91 4.41547L5.50302 3.27817V3.27936L6.08948 4.41448C6.14983 4.53063 6.26287 4.61023 6.39257 4.62793L7.6962 4.80763L6.76295 5.67657Z" fill="#212121"/>
</svg>
