<svg width="22" height="22" viewBox="0 0 22 22" fill="none" xmlns="http://www.w3.org/2000/svg">
<path d="M11 19.25C15.5563 19.25 19.25 15.5563 19.25 11C19.25 6.44365 15.5563 2.75 11 2.75C6.44365 2.75 2.75 6.44365 2.75 11C2.75 15.5563 6.44365 19.25 11 19.25Z" fill="#FBBE1C" stroke="#24282A" stroke-width="2" stroke-linecap="round" stroke-linejoin="round"/>
<path d="M13.5667 8.24998C13.4006 7.96193 13.1593 7.72446 12.8687 7.56299C12.5781 7.40152 12.249 7.32213 11.9167 7.33331H10.0833C9.5971 7.33331 9.13079 7.52647 8.78697 7.87028C8.44315 8.2141 8.25 8.68042 8.25 9.16665C8.25 9.65288 8.44315 10.1192 8.78697 10.463C9.13079 10.8068 9.5971 11 10.0833 11H11.9167C12.4029 11 12.8692 11.1931 13.213 11.537C13.5568 11.8808 13.75 12.3471 13.75 12.8333C13.75 13.3195 13.5568 13.7859 13.213 14.1297C12.8692 14.4735 12.4029 14.6666 11.9167 14.6666H10.0833C9.75103 14.6778 9.42195 14.5984 9.1313 14.437C8.84065 14.2755 8.59939 14.038 8.43333 13.75" stroke="#24282A" stroke-width="2" stroke-linecap="round" stroke-linejoin="round"/>
<path d="M11 14.6667V16.5M11 5.5V7.33333V5.5Z" stroke="#24282A" stroke-width="2" stroke-linecap="round" stroke-linejoin="round"/>
</svg>
