<svg width="32" height="32" viewBox="0 0 32 32" fill="none" xmlns="http://www.w3.org/2000/svg">
<path d="M15.9999 2.64453C9.3756 2.65189 4.00736 8.02013 4 14.6445V17.3556C4 23.9829 9.37258 29.3555 15.9999 29.3555C22.6273 29.3555 27.9999 23.9829 27.9999 17.3556V14.6445C27.9925 8.02013 22.6243 2.65189 15.9999 2.64453Z" fill="#FE9C72"/>
<path d="M15.9999 2.64453C9.3756 2.65189 4.00736 8.02013 4 14.6445V17.3556C4 23.9829 9.37258 29.3555 15.9999 29.3555C22.6273 29.3555 27.9999 23.9829 27.9999 17.3556V14.6445C27.9925 8.02013 22.6243 2.65189 15.9999 2.64453ZM15.9999 28.4222C10.8209 28.4223 6.32773 24.8468 5.16487 19.8C7.15265 23.9819 11.3696 26.6465 15.9999 26.6465C20.6302 26.6465 24.8472 23.9819 26.835 19.8C25.6721 24.8468 21.1789 28.4223 15.9999 28.4222Z" fill="#FEC772"/>
<path d="M15.9993 5.31177C10.8446 5.31177 6.66602 9.4904 6.66602 14.645C6.66602 19.7997 10.8446 23.9783 15.9993 23.9783C21.1539 23.9783 25.3325 19.7997 25.3325 14.645C25.3267 9.49284 21.1515 5.31765 15.9993 5.31177Z" fill="#FE9C72"/>
<path d="M21.0051 12.2802L18.1029 11.8758L16.7998 9.34911C16.6447 9.052 16.3372 8.86572 16.0021 8.86572C15.6669 8.86572 15.3594 9.052 15.2043 9.34911L13.8932 11.878L10.9972 12.2802C10.6546 12.3255 10.3693 12.5652 10.2656 12.8949C10.161 13.2208 10.2556 13.5777 10.5078 13.8091L12.5855 15.7406L12.0887 18.4864C12.0288 18.817 12.162 19.1529 12.4322 19.3526C12.7054 19.5577 13.0715 19.5898 13.3762 19.4353L16.0038 18.1215L18.622 19.4353C18.9265 19.5897 19.2924 19.5577 19.5655 19.3526C19.8358 19.1528 19.969 18.8167 19.909 18.486L19.4162 15.7442L21.4935 13.8091C21.7461 13.578 21.8409 13.2209 21.7362 12.8949C21.6327 12.5654 21.3476 12.3257 21.0051 12.2802Z" fill="#FFCF85"/>
<path d="M15.9999 2.64453C9.3756 2.65189 4.00736 8.02013 4 14.6445V17.3556C4 23.9829 9.37258 29.3555 15.9999 29.3555C22.6273 29.3555 27.9999 23.9829 27.9999 17.3556V14.6445C27.9925 8.02013 22.6243 2.65189 15.9999 2.64453ZM15.9999 28.4222C10.8209 28.4223 6.32773 24.8468 5.16487 19.8C7.15265 23.9819 11.3696 26.6465 15.9999 26.6465C20.6302 26.6465 24.8472 23.9819 26.835 19.8C25.6721 24.8468 21.1789 28.4223 15.9999 28.4222ZM15.9999 25.7555C9.86349 25.7555 4.88889 20.7809 4.88889 14.6445C4.88889 8.50802 9.86349 3.53342 15.9999 3.53342C22.1364 3.53342 27.111 8.50802 27.111 14.6445C27.1041 20.7781 22.1336 25.7486 15.9999 25.7555Z" fill="#212121"/>
<path d="M15.9993 5.31177C10.8446 5.31177 6.66602 9.4904 6.66602 14.645C6.66602 19.7997 10.8446 23.9783 15.9993 23.9783C21.1539 23.9783 25.3325 19.7997 25.3325 14.645C25.3267 9.49284 21.1515 5.31765 15.9993 5.31177ZM15.9993 23.0894C11.3356 23.0894 7.55491 19.3087 7.55491 14.645C7.55491 9.98136 11.3356 6.20066 15.9993 6.20066C20.6629 6.20066 24.4436 9.98136 24.4436 14.645C24.4385 19.3066 20.6609 23.0843 15.9993 23.0894Z" fill="#212121"/>
<path d="M21.0051 12.2802L18.1029 11.8758L16.7998 9.34911C16.6447 9.052 16.3372 8.86572 16.0021 8.86572C15.6669 8.86572 15.3594 9.052 15.2043 9.34911L13.8932 11.878L10.9972 12.2802C10.6546 12.3255 10.3693 12.5652 10.2656 12.8949C10.161 13.2208 10.2556 13.5777 10.5078 13.8091L12.5855 15.7406L12.0887 18.4864C12.0288 18.817 12.162 19.1529 12.4322 19.3526C12.7054 19.5577 13.0715 19.5898 13.3762 19.4353L16.0038 18.1215L18.622 19.4353C18.9265 19.5897 19.2924 19.5577 19.5655 19.3526C19.8358 19.1528 19.969 18.8167 19.909 18.486L19.4162 15.7442L21.4935 13.8091C21.7461 13.578 21.8409 13.2209 21.7362 12.8949C21.6327 12.5654 21.3476 12.3257 21.0051 12.2802ZM18.8109 15.0931C18.589 15.2974 18.4872 15.6012 18.5411 15.898L19.0211 18.6411L16.4047 17.3277C16.1499 17.1997 15.8497 17.1997 15.5949 17.3277L12.9656 18.6433L13.4584 15.898C13.5123 15.6015 13.4109 15.2981 13.1896 15.0936L11.1171 13.1611L14.0126 12.7611C14.301 12.7215 14.5522 12.5443 14.6864 12.286L16.0064 9.75445V9.7571L17.3118 12.2838C17.4461 12.5423 17.6978 12.7195 17.9864 12.7589L20.8882 13.1589L18.8109 15.0931Z" fill="#212121"/>
</svg>
