<svg width="12" height="13" viewBox="0 0 12 13" fill="none" xmlns="http://www.w3.org/2000/svg">
<path d="M11.998 2.27586C11.9971 2.26195 11.9945 2.24821 11.9903 2.23485C11.9878 2.22305 11.9842 2.21147 11.9796 2.20023C11.9733 2.18996 11.9661 2.18018 11.9582 2.17102C11.9499 2.15906 11.9404 2.14792 11.9297 2.13779C11.9273 2.13579 11.9262 2.13298 11.9237 2.13099L10.6379 1.13045H10.6361C10.6186 1.11689 10.5989 1.10601 10.5776 1.09822L7.79174 0.0977072C7.76731 0.0886086 7.74132 0.0838013 7.71502 0.0834965H4.28621C4.25991 0.0834496 4.23382 0.0879285 4.20929 0.0966988L1.4234 1.09724C1.4022 1.10503 1.38246 1.11591 1.36488 1.12946H1.36317L0.077374 2.13C0.0748124 2.13199 0.0737325 2.13481 0.0713719 2.1368C0.0606485 2.14691 0.0511055 2.15805 0.0428683 2.17003C0.0348823 2.1792 0.0276999 2.18898 0.0214467 2.19925C0.016851 2.21048 0.0132598 2.22207 0.0107234 2.23386C0.00620298 2.2472 0.0032396 2.26095 0.00193371 2.27488C0.00193371 2.27788 0 2.28048 0 2.28367V4.08463C0 4.09124 0.00344049 4.09703 0.00406832 4.10344C0.00532398 4.1191 0.00863897 4.13455 0.0139379 4.14947C0.01773 4.15932 0.0224764 4.16884 0.0280766 4.17789C0.0310149 4.18474 0.03438 4.19142 0.038147 4.19789L5.82424 11.9997H5.82553C5.83324 12.0087 5.84177 12.0172 5.85102 12.0249C5.85634 12.0304 5.86199 12.0356 5.86794 12.0405C5.87116 12.0429 5.87372 12.0457 5.87693 12.0479L5.87844 12.0493C5.88401 12.0521 5.88974 12.0547 5.89559 12.0569C5.90878 12.0632 5.92206 12.0692 5.93545 12.0751H5.93653C5.95232 12.0792 5.96857 12.0816 5.98497 12.0821C5.98818 12.0821 5.99162 12.0835 5.99484 12.0835C5.99805 12.0835 5.99805 12.0835 5.99999 12.0835C6.00192 12.0835 6.00343 12.0835 6.00514 12.0835C6.00684 12.0835 6.01179 12.0823 6.01501 12.0821C6.03138 12.0816 6.04765 12.0792 6.06345 12.0751H6.06453C6.07791 12.0692 6.0912 12.0632 6.10438 12.0569C6.11023 12.0547 6.11596 12.0521 6.12154 12.0493L6.12304 12.0479C6.12626 12.0457 6.12882 12.0429 6.13203 12.0405C6.13798 12.0356 6.14363 12.0304 6.14896 12.0249C6.15823 12.0172 6.16674 12.0087 6.17447 11.9997H6.17576L11.9619 4.19789C11.9656 4.19142 11.969 4.18474 11.9719 4.17789C11.9775 4.16884 11.9823 4.15932 11.9861 4.14947C11.9914 4.13455 11.9947 4.1191 11.9959 4.10344C11.9959 4.09703 12 4.09122 12 4.08463V2.28468C12 2.28147 11.9982 2.27886 11.998 2.27586Z" fill="#C4BAFF"/>
<path d="M11.998 2.27586C11.9971 2.26195 11.9945 2.24821 11.9903 2.23485C11.9878 2.22305 11.9842 2.21147 11.9796 2.20023C11.9733 2.18996 11.9661 2.18018 11.9582 2.17102C11.9499 2.15906 11.9404 2.14792 11.9297 2.13779C11.9273 2.13579 11.9262 2.13298 11.9237 2.13099L10.6379 1.13045H10.6361C10.6186 1.11689 10.5989 1.10601 10.5776 1.09822L7.79174 0.0977072C7.76731 0.0886086 7.74132 0.0838013 7.71502 0.0834965H4.28621C4.25991 0.0834496 4.23382 0.0879285 4.20929 0.0966988L1.4234 1.09724C1.4022 1.10503 1.38246 1.11591 1.36488 1.12946H1.36317L0.077374 2.13C0.0748124 2.13199 0.0737325 2.13481 0.0713719 2.1368C0.0606485 2.14691 0.0511055 2.15805 0.0428683 2.17003C0.0348823 2.1792 0.0276999 2.18898 0.0214467 2.19925C0.016851 2.21048 0.0132598 2.22207 0.0107234 2.23386C0.00620298 2.2472 0.0032396 2.26095 0.00193371 2.27488C0.00193371 2.27788 0 2.28048 0 2.28367V4.08463C0 4.09124 0.00344049 4.09703 0.00406832 4.10344C0.00532398 4.1191 0.00863897 4.13455 0.0139379 4.14947C0.01773 4.15932 0.0224764 4.16884 0.0280766 4.17789C0.0310149 4.18474 0.03438 4.19142 0.038147 4.19789L5.82424 11.9997H5.82553C5.83324 12.0087 5.84177 12.0172 5.85102 12.0249C5.85634 12.0304 5.86199 12.0356 5.86794 12.0405C5.87116 12.0429 5.87372 12.0457 5.87693 12.0479L5.87844 12.0493C5.88401 12.0521 5.88974 12.0547 5.89559 12.0569C5.90878 12.0632 5.92206 12.0692 5.93545 12.0751H5.93653C5.95232 12.0792 5.96857 12.0816 5.98497 12.0821C5.98818 12.0821 5.99162 12.0835 5.99484 12.0835C5.99805 12.0835 5.99805 12.0835 5.99999 12.0835C6.00192 12.0835 6.00343 12.0835 6.00514 12.0835C6.00684 12.0835 6.01179 12.0823 6.01501 12.0821C6.03138 12.0816 6.04765 12.0792 6.06345 12.0751H6.06453C6.07791 12.0692 6.0912 12.0632 6.10438 12.0569C6.11023 12.0547 6.11596 12.0521 6.12154 12.0493L6.12304 12.0479C6.12626 12.0457 6.12882 12.0429 6.13203 12.0405C6.13798 12.0356 6.14363 12.0304 6.14896 12.0249C6.15823 12.0172 6.16674 12.0087 6.17447 11.9997H6.17576L11.9619 4.19789C11.9656 4.19142 11.969 4.18474 11.9719 4.17789C11.9775 4.16884 11.9823 4.15932 11.9861 4.14947C11.9914 4.13455 11.9947 4.1191 11.9959 4.10344C11.9959 4.09703 12 4.09122 12 4.08463V2.28468C12 2.28147 11.9982 2.27886 11.998 2.27586ZM0.493099 4.10904L1.59288 3.08149L4.03312 4.00558L3.70973 5.21302L1.58196 4.39499C1.47249 4.35287 1.34718 4.40163 1.30207 4.50385C1.25697 4.60606 1.30918 4.72308 1.41865 4.7652L3.68294 5.63566L5.3759 10.6946L0.493099 4.10904ZM6.62445 10.6946L8.32 5.63045L10.5916 4.64314C10.662 4.61357 10.71 4.55089 10.7171 4.47908C10.7242 4.40728 10.6894 4.33744 10.626 4.29629C10.5625 4.25513 10.4803 4.24906 10.4107 4.28034L8.28914 5.20263L7.96769 4.0056L10.4079 3.08151L11.5081 4.10906L6.62445 10.6946Z" fill="#AAEBEF"/>
<path d="M11.998 2.27586C11.9971 2.26195 11.9945 2.24821 11.9903 2.23485C11.9878 2.22305 11.9842 2.21147 11.9796 2.20023C11.9733 2.18996 11.9661 2.18018 11.9582 2.17102C11.9499 2.15906 11.9404 2.14792 11.9297 2.13779C11.9273 2.13579 11.9262 2.13298 11.9237 2.13099L10.6379 1.13045H10.6361C10.6186 1.11689 10.5989 1.10601 10.5776 1.09822L7.79174 0.0977072C7.76731 0.0886086 7.74132 0.0838013 7.71502 0.0834965H4.28621C4.25991 0.0834496 4.23382 0.0879285 4.20929 0.0966988L1.4234 1.09724C1.4022 1.10503 1.38246 1.11591 1.36488 1.12946H1.36317L0.077374 2.13C0.0748124 2.13199 0.0737325 2.13481 0.0713719 2.1368C0.0606485 2.14691 0.0511055 2.15805 0.0428683 2.17003C0.0348823 2.1792 0.0276999 2.18898 0.0214467 2.19925C0.016851 2.21048 0.0132598 2.22207 0.0107234 2.23386C0.00620298 2.2472 0.0032396 2.26095 0.00193371 2.27488C0.00193371 2.27788 0 2.28048 0 2.28367V4.08463C0 4.09124 0.00344049 4.09703 0.00406832 4.10344C0.00532398 4.1191 0.00863897 4.13455 0.0139379 4.14947C0.01773 4.15932 0.0224764 4.16884 0.0280766 4.17789C0.0310149 4.18474 0.03438 4.19142 0.038147 4.19789L5.82424 11.9997H5.82553C5.83324 12.0087 5.84177 12.0172 5.85102 12.0249C5.85634 12.0304 5.86199 12.0356 5.86794 12.0405C5.87116 12.0429 5.87372 12.0457 5.87693 12.0479L5.87844 12.0493C5.88401 12.0521 5.88974 12.0547 5.89559 12.0569C5.90878 12.0632 5.92206 12.0692 5.93545 12.0751H5.93653C5.95232 12.0792 5.96857 12.0816 5.98497 12.0821C5.98818 12.0821 5.99162 12.0835 5.99484 12.0835C5.99805 12.0835 5.99805 12.0835 5.99999 12.0835C6.00192 12.0835 6.00343 12.0835 6.00514 12.0835C6.00684 12.0835 6.01179 12.0823 6.01501 12.0821C6.03138 12.0816 6.04765 12.0792 6.06345 12.0751H6.06453C6.07791 12.0692 6.0912 12.0632 6.10438 12.0569C6.11023 12.0547 6.11596 12.0521 6.12154 12.0493L6.12304 12.0479C6.12626 12.0457 6.12882 12.0429 6.13203 12.0405C6.13798 12.0356 6.14363 12.0304 6.14896 12.0249C6.15823 12.0172 6.16674 12.0087 6.17447 11.9997H6.17576L11.9619 4.19789C11.9656 4.19142 11.969 4.18474 11.9719 4.17789C11.9775 4.16884 11.9823 4.15932 11.9861 4.14947C11.9914 4.13455 11.9947 4.1191 11.9959 4.10344C11.9959 4.09703 12 4.09122 12 4.08463V2.28468C12 2.28147 11.9982 2.27886 11.998 2.27586ZM1.71461 1.4216L4.32609 0.483718H7.67517L10.2866 1.42162V2.6959L7.67323 3.68542H4.32908L1.71461 2.6959V1.4216ZM0.428809 2.37831L1.286 1.71135V2.80213L0.428809 3.60254V2.37831ZM0.493099 4.10904L1.59288 3.08149L4.03312 4.00558L3.70973 5.21302L1.58196 4.39499C1.47249 4.35287 1.34718 4.40163 1.30207 4.50385C1.25697 4.60606 1.30918 4.72308 1.41865 4.7652L3.68294 5.63566L5.3759 10.6946L0.493099 4.10904ZM6.00062 11.2164L4.14906 5.68648H7.28641C7.40477 5.68648 7.50071 5.5969 7.50071 5.48638C7.50071 5.37586 7.40477 5.28628 7.28641 5.28628H4.13214L4.45359 4.08564H7.54764L7.92118 5.48037L6.00062 11.2164ZM6.62445 10.6946L8.32 5.63045L10.5916 4.64314C10.662 4.61357 10.71 4.55089 10.7171 4.47908C10.7242 4.40728 10.6894 4.33744 10.626 4.29629C10.5625 4.25513 10.4803 4.24906 10.4107 4.28034L8.28914 5.20263L7.96769 4.0056L10.4079 3.08151L11.5081 4.10906L6.62445 10.6946ZM11.5724 3.60257L10.7152 2.80215V1.71137L11.5724 2.37834V3.60257Z" fill="#24282A"/>
<path d="M7.2 1.5835H7.80001C7.91047 1.5835 8 1.47158 8 1.3335C8 1.19541 7.91047 1.0835 7.80001 1.0835H7.2C7.08953 1.0835 7 1.19541 7 1.3335C7 1.47158 7.08953 1.5835 7.2 1.5835Z" fill="#24282A"/>
<path d="M4.1923 1.5835H6.3077C6.41391 1.5835 6.5 1.47158 6.5 1.3335C6.5 1.19541 6.41391 1.0835 6.3077 1.0835H4.1923C4.08609 1.0835 4 1.19541 4 1.3335C4 1.47158 4.08609 1.5835 4.1923 1.5835Z" fill="#24282A"/>
</svg>
