<svg width="181" height="46" viewBox="0 0 181 46" fill="none" xmlns="http://www.w3.org/2000/svg">
<path d="M19.9003 3.43627C19.8865 3.41529 19.8704 3.39595 19.8523 3.37855C19.8381 3.36222 19.8225 3.34711 19.8057 3.33341C19.7873 3.32265 19.7681 3.3134 19.7483 3.30581C19.7256 3.29406 19.7017 3.2847 19.677 3.27793C19.6718 3.27681 19.6677 3.27331 19.6621 3.27236L16.8923 2.79565L16.8898 2.7971C16.852 2.79076 16.8135 2.79046 16.7757 2.79626L11.8208 3.59245C11.7771 3.59893 11.7349 3.61345 11.6963 3.63528L6.70208 6.5447C6.66374 6.56694 6.62975 6.5961 6.60187 6.63066L3.44112 10.5623C3.41723 10.5925 3.39824 10.6263 3.38478 10.6624L3.3823 10.6639L2.40651 13.3226C2.40457 13.3279 2.40552 13.3333 2.40387 13.3384C2.39731 13.3633 2.39339 13.3889 2.39214 13.4146C2.38873 13.4358 2.38703 13.4572 2.38713 13.4786C2.39051 13.5001 2.39567 13.5213 2.40255 13.5419C2.40793 13.5667 2.41593 13.5907 2.42652 13.6137C2.42921 13.6184 2.42873 13.6241 2.43158 13.6291L4.04626 16.451C4.05219 16.4614 4.0624 16.4675 4.06905 16.477C4.08492 16.5005 4.10361 16.5219 4.1247 16.5408C4.13905 16.553 4.1545 16.5639 4.17077 16.5733C4.18119 16.5815 4.19209 16.5891 4.20337 16.5961L19.6259 23.911L19.6278 23.9099C19.6472 23.9176 19.6672 23.9235 19.6875 23.9278C19.7002 23.9319 19.7131 23.9353 19.7262 23.9379C19.733 23.9389 19.7393 23.9412 19.7459 23.9419L19.7494 23.9428C19.76 23.9425 19.7706 23.9416 19.7812 23.9402C19.806 23.9388 19.8308 23.937 19.8555 23.9349L19.8571 23.9339C19.8838 23.927 19.9096 23.9169 19.934 23.9038C19.9386 23.9011 19.9449 23.9004 19.9496 23.8976C19.9543 23.8949 19.9543 23.8949 19.9571 23.8933C19.9599 23.8916 19.9621 23.8904 19.9646 23.8889C19.9671 23.8875 19.9732 23.8814 19.9777 23.8783C20.0011 23.8636 20.0227 23.8461 20.042 23.8262L20.0436 23.8253C20.0578 23.8047 20.0717 23.784 20.0853 23.763C20.0918 23.7545 20.0979 23.7457 20.1035 23.7365L20.1044 23.733C20.1071 23.7269 20.1083 23.7203 20.1109 23.7138C20.1151 23.7011 20.1187 23.6881 20.1215 23.675C20.1281 23.655 20.1329 23.6346 20.1361 23.6138L20.1379 23.6127L21.5709 6.47857C21.5706 6.46524 21.5695 6.45191 21.5676 6.43869C21.5677 6.41973 21.566 6.40081 21.5627 6.38216C21.5571 6.35429 21.5481 6.32727 21.5358 6.30165C21.5301 6.29162 21.5308 6.27906 21.5249 6.26873L19.9111 3.4484C19.9082 3.44341 19.9033 3.4408 19.9003 3.43627Z" fill="#C4BAFF"/>
<path d="M19.9003 3.43627C19.8865 3.41529 19.8704 3.39595 19.8523 3.37855C19.8381 3.36222 19.8225 3.34711 19.8057 3.33341C19.7873 3.32265 19.7681 3.3134 19.7483 3.30581C19.7256 3.29406 19.7017 3.2847 19.677 3.27793C19.6718 3.27681 19.6677 3.27331 19.6621 3.27236L16.8923 2.79565L16.8898 2.7971C16.852 2.79076 16.8135 2.79046 16.7757 2.79626L11.8208 3.59245C11.7771 3.59893 11.7349 3.61345 11.6963 3.63528L6.70208 6.5447C6.66374 6.56694 6.62975 6.5961 6.60187 6.63066L3.44112 10.5623C3.41723 10.5925 3.39824 10.6263 3.38478 10.6624L3.3823 10.6639L2.40651 13.3226C2.40457 13.3279 2.40552 13.3333 2.40387 13.3384C2.39731 13.3633 2.39339 13.3889 2.39214 13.4146C2.38873 13.4358 2.38703 13.4572 2.38713 13.4786C2.39051 13.5001 2.39567 13.5213 2.40255 13.5419C2.40793 13.5667 2.41593 13.5907 2.42652 13.6137C2.42921 13.6184 2.42873 13.6241 2.43158 13.6291L4.04626 16.451C4.05219 16.4614 4.0624 16.4675 4.06905 16.477C4.08492 16.5005 4.10361 16.5219 4.1247 16.5408C4.13905 16.553 4.1545 16.5639 4.17077 16.5733C4.18119 16.5815 4.19209 16.5891 4.20337 16.5961L19.6259 23.911L19.6278 23.9099C19.6472 23.9176 19.6672 23.9235 19.6875 23.9278C19.7002 23.9319 19.7131 23.9353 19.7262 23.9379C19.733 23.9389 19.7393 23.9412 19.7459 23.9419L19.7494 23.9428C19.76 23.9425 19.7706 23.9416 19.7812 23.9402C19.806 23.9388 19.8308 23.937 19.8555 23.9349L19.8571 23.9339C19.8838 23.927 19.9096 23.9169 19.934 23.9038C19.9386 23.9011 19.9449 23.9004 19.9496 23.8976C19.9543 23.8949 19.9543 23.8949 19.9571 23.8933C19.9599 23.8916 19.9621 23.8904 19.9646 23.8889C19.9671 23.8875 19.9732 23.8814 19.9777 23.8783C20.0011 23.8636 20.0227 23.8461 20.042 23.8262L20.0436 23.8253C20.0578 23.8047 20.0717 23.784 20.0853 23.763C20.0918 23.7545 20.0979 23.7457 20.1035 23.7365L20.1044 23.733C20.1071 23.7269 20.1083 23.7203 20.1109 23.7138C20.1151 23.7011 20.1187 23.6881 20.1215 23.675C20.1281 23.655 20.1329 23.6346 20.1361 23.6138L20.1379 23.6127L21.5709 6.47857C21.5706 6.46524 21.5695 6.45191 21.5676 6.43869C21.5677 6.41973 21.566 6.40081 21.5627 6.38216C21.5571 6.35429 21.5481 6.32727 21.5358 6.30165C21.5301 6.29162 21.5308 6.27906 21.5249 6.26873L19.9111 3.4484C19.9082 3.44341 19.9033 3.4408 19.9003 3.43627ZM4.78638 16.0708L5.467 13.5276L9.84984 12.9049L10.4614 15.0713L6.62873 15.595C6.43153 15.6219 6.29271 15.8046 6.31866 16.003C6.34461 16.2015 6.52557 16.3405 6.72277 16.3136L10.8013 15.7562L17.8028 22.2465L4.78638 16.0708ZM19.6214 21.187L17.5507 11.8134L19.9742 8.33894C20.0503 8.23283 20.0639 8.09394 20.0099 7.97538C19.9559 7.85682 19.8426 7.77695 19.7133 7.76629C19.584 7.75563 19.4588 7.81588 19.3855 7.92395L17.1222 11.1693L15.5808 9.56641L18.3066 6.04787L20.8304 6.72438L19.6214 21.187Z" fill="url(#paint0_linear)"/>
<path d="M19.9003 3.43627C19.8865 3.41529 19.8704 3.39595 19.8523 3.37855C19.8381 3.36222 19.8225 3.34711 19.8057 3.33341C19.7873 3.32265 19.7681 3.3134 19.7483 3.30581C19.7256 3.29406 19.7017 3.2847 19.677 3.27793C19.6718 3.27681 19.6677 3.27331 19.6621 3.27236L16.8923 2.79565L16.8898 2.7971C16.852 2.79076 16.8135 2.79046 16.7757 2.79626L11.8208 3.59245C11.7771 3.59893 11.7349 3.61345 11.6963 3.63528L6.70208 6.5447C6.66374 6.56694 6.62975 6.5961 6.60187 6.63066L3.44112 10.5623C3.41723 10.5925 3.39824 10.6263 3.38478 10.6624L3.3823 10.6639L2.40651 13.3226C2.40457 13.3279 2.40552 13.3333 2.40387 13.3384C2.39731 13.3633 2.39339 13.3889 2.39214 13.4146C2.38873 13.4358 2.38703 13.4572 2.38713 13.4786C2.39051 13.5001 2.39567 13.5213 2.40255 13.5419C2.40793 13.5667 2.41593 13.5907 2.42652 13.6137C2.42921 13.6184 2.42873 13.6241 2.43158 13.6291L4.04626 16.451C4.05219 16.4614 4.0624 16.4675 4.06905 16.477C4.08492 16.5005 4.10361 16.5219 4.1247 16.5408C4.13905 16.553 4.1545 16.5639 4.17077 16.5733C4.18119 16.5815 4.19209 16.5891 4.20337 16.5961L19.6259 23.911L19.6278 23.9099C19.6472 23.9176 19.6672 23.9235 19.6875 23.9278C19.7002 23.9319 19.7131 23.9353 19.7262 23.9379C19.733 23.9389 19.7393 23.9412 19.7459 23.9419L19.7494 23.9428C19.76 23.9425 19.7706 23.9416 19.7812 23.9402C19.806 23.9388 19.8308 23.937 19.8555 23.9349L19.8571 23.9339C19.8838 23.927 19.9096 23.9169 19.934 23.9038C19.9386 23.9011 19.9449 23.9004 19.9496 23.8976C19.9543 23.8949 19.9543 23.8949 19.9571 23.8933C19.9599 23.8916 19.9621 23.8904 19.9646 23.8889C19.9671 23.8875 19.9732 23.8814 19.9777 23.8783C20.0011 23.8636 20.0227 23.8461 20.042 23.8262L20.0436 23.8253C20.0578 23.8047 20.0717 23.784 20.0853 23.763C20.0918 23.7545 20.0979 23.7457 20.1035 23.7365L20.1044 23.733C20.1071 23.7269 20.1083 23.7203 20.1109 23.7138C20.1151 23.7011 20.1187 23.6881 20.1215 23.675C20.1281 23.655 20.1329 23.6346 20.1361 23.6138L20.1379 23.6127L21.5709 6.47857C21.5706 6.46524 21.5695 6.45191 21.5676 6.43869C21.5677 6.41973 21.566 6.40081 21.5627 6.38216C21.5571 6.35429 21.5481 6.32727 21.5358 6.30165C21.5301 6.29162 21.5308 6.27906 21.5249 6.26873L19.9111 3.4484C19.9082 3.44341 19.9033 3.4408 19.9003 3.43627ZM4.1561 10.8234L7.11899 7.13797L11.9971 4.2962L16.6417 3.54993L17.7842 5.54658L14.8648 9.31456L9.99388 12.1522L5.29859 12.8201L4.1561 10.8234ZM3.14102 13.4135L3.79159 11.6411L4.76954 13.3502L4.23863 15.3318L3.14102 13.4135ZM4.78638 16.0708L5.467 13.5276L9.84984 12.9049L10.4614 15.0713L6.62873 15.595C6.43153 15.6219 6.29271 15.8046 6.31866 16.003C6.34461 16.2015 6.52557 16.3405 6.72277 16.3136L10.8013 15.7562L17.8028 22.2465L4.78638 16.0708ZM19.1806 22.5341L11.5258 15.4403L16.0955 12.7782C16.2679 12.6778 16.3273 12.456 16.2282 12.2829C16.1291 12.1097 15.9091 12.0507 15.7367 12.1512L11.1423 14.8276L10.5341 12.6736L15.0407 10.0482L16.8353 11.9167L19.1806 22.5341ZM19.6214 21.187L17.5507 11.8134L19.9742 8.33894C20.0503 8.23283 20.0639 8.09394 20.0099 7.97538C19.9559 7.85682 19.8426 7.77695 19.7133 7.76629C19.584 7.75563 19.4588 7.81588 19.3855 7.92395L17.1222 11.1693L15.5808 9.56641L18.3066 6.04787L20.8304 6.72438L19.6214 21.187ZM20.4699 5.87621L18.5037 5.34938L17.5258 3.64025L19.3723 3.95797L20.4699 5.87621Z" fill="black"/>
<path d="M12.1332 5.87147L13.0681 5.32748C13.2402 5.22734 13.2992 5.0056 13.1998 4.83217C13.1005 4.65875 12.8805 4.59935 12.7084 4.6995L11.7735 5.24348C11.6014 5.34363 11.5424 5.56537 11.6418 5.7388C11.7411 5.91222 11.9611 5.97162 12.1332 5.87147Z" fill="black"/>
<path d="M7.45941 8.59117L10.8871 6.59664C11.0592 6.4965 11.1182 6.27477 11.0188 6.10135C10.9195 5.92793 10.6995 5.86854 10.5274 5.96869L7.09968 7.96322C6.92758 8.06336 6.86861 8.28509 6.96795 8.45851C7.06729 8.63193 7.2873 8.69132 7.45941 8.59117Z" fill="black"/>
<path d="M50.0001 8C42.064 8.00882 35.6328 14.44 35.624 22.376V25.624C35.624 33.5636 42.0604 40 50.0001 40C57.9397 40 64.3761 33.5636 64.3761 25.624V22.376C64.3673 14.44 57.9361 8.00882 50.0001 8Z" fill="#FE9C72"/>
<path d="M50.0001 8C42.064 8.00882 35.6328 14.44 35.624 22.376V25.624C35.624 33.5636 42.0604 40 50.0001 40C57.9397 40 64.3761 33.5636 64.3761 25.624V22.376C64.3673 14.44 57.9361 8.00882 50.0001 8ZM50.0001 38.8819C43.7956 38.8821 38.4127 34.5985 37.0196 28.5524C39.4009 33.5624 44.4529 36.7546 50.0001 36.7546C55.5472 36.7546 60.5991 33.5623 62.9806 28.5524C61.5875 34.5985 56.2045 38.8821 50.0001 38.8819Z" fill="#FEC772"/>
<path d="M50.0002 11.4287C44.004 11.4287 39.1431 16.2896 39.1431 22.2859C39.1431 28.2821 44.004 33.143 50.0002 33.143C55.9965 33.143 60.8574 28.2821 60.8574 22.2859C60.8505 16.2924 55.9936 11.4355 50.0002 11.4287Z" fill="url(#paint1_linear)"/>
<path d="M55.9398 19.6359L52.4951 19.1376L50.9484 16.0243C50.7643 15.6582 50.3994 15.4287 50.0016 15.4287C49.6037 15.4287 49.2388 15.6582 49.0547 16.0243L47.4985 19.1403L44.0612 19.6359C43.6546 19.6917 43.3159 19.9871 43.1929 20.3933C43.0688 20.7949 43.181 21.2347 43.4804 21.5197L45.9465 23.8997L45.3567 27.2829C45.2856 27.6903 45.4437 28.1042 45.7645 28.3503C46.0888 28.603 46.5232 28.6425 46.8849 28.4521L50.0036 26.8333L53.1112 28.4521C53.4727 28.6424 53.907 28.6029 54.2311 28.3503C54.5519 28.104 54.71 27.6899 54.6388 27.2824L54.0538 23.9041L56.5194 21.5198C56.8192 21.235 56.9318 20.795 56.8075 20.3933C56.6846 19.9873 56.3462 19.6919 55.9398 19.6359Z" fill="url(#paint2_linear)"/>
<path d="M50.0001 8C42.064 8.00882 35.6328 14.44 35.624 22.376V25.624C35.624 33.5636 42.0604 40 50.0001 40C57.9397 40 64.3761 33.5636 64.3761 25.624V22.376C64.3673 14.44 57.9361 8.00882 50.0001 8ZM50.0001 38.8819C43.7956 38.8821 38.4127 34.5985 37.0196 28.5524C39.4009 33.5624 44.4529 36.7546 50.0001 36.7546C55.5472 36.7546 60.5991 33.5623 62.9806 28.5524C61.5875 34.5985 56.2045 38.8821 50.0001 38.8819ZM50.0001 35.6872C42.6485 35.6872 36.6889 29.7276 36.6889 22.376C36.6889 15.0245 42.6485 9.0649 50.0001 9.0649C57.3516 9.0649 63.3112 15.0245 63.3112 22.376C63.303 29.7241 57.3482 35.6789 50.0001 35.6872Z" fill="#212121"/>
<path d="M49.9997 11.1943C43.8244 11.1943 38.8184 16.2004 38.8184 22.3757C38.8184 28.551 43.8244 33.557 49.9997 33.557C56.175 33.557 61.181 28.551 61.181 22.3757C61.174 16.2033 56.1721 11.2014 49.9997 11.1943ZM49.9997 32.4921C44.4125 32.4921 39.8833 27.9628 39.8833 22.3757C39.8833 16.7886 44.4126 12.2592 49.9997 12.2592C55.5868 12.2592 60.1161 16.7886 60.1161 22.3757C60.11 27.9603 55.5843 32.486 49.9997 32.4921Z" fill="#212121"/>
<path d="M55.9398 19.6359L52.4951 19.1376L50.9484 16.0243C50.7643 15.6582 50.3994 15.4287 50.0016 15.4287C49.6037 15.4287 49.2388 15.6582 49.0547 16.0243L47.4985 19.1403L44.0612 19.6359C43.6546 19.6917 43.3159 19.9871 43.1929 20.3933C43.0688 20.7949 43.181 21.2347 43.4804 21.5197L45.9465 23.8997L45.3567 27.2829C45.2856 27.6903 45.4437 28.1042 45.7645 28.3503C46.0887 28.603 46.5232 28.6425 46.8849 28.4521L50.0036 26.8333L53.1112 28.4521C53.4727 28.6424 53.907 28.6029 54.2311 28.3503C54.5519 28.104 54.71 27.6899 54.6388 27.2824L54.0538 23.9041L56.5194 21.5198C56.8192 21.235 56.9318 20.795 56.8075 20.3933C56.6846 19.9873 56.3462 19.6919 55.9398 19.6359ZM53.3354 23.1018C53.0721 23.3536 52.9512 23.7278 53.0152 24.0936L53.5849 27.4735L50.4795 25.8553C50.1771 25.6976 49.8207 25.6976 49.5183 25.8553L46.3975 27.4763L46.9825 24.0936C47.0464 23.7283 46.9261 23.3544 46.6634 23.1024L44.2035 20.7213L47.6403 20.2285C47.9826 20.1796 48.2807 19.9614 48.44 19.643L50.0067 16.5238V16.527L51.5561 19.6403C51.7156 19.9589 52.0142 20.1772 52.3569 20.2257L55.801 20.7186L53.3354 23.1018Z" fill="#212121"/>
<path d="M116.807 20.4655C116.823 20.4281 116.834 20.3891 116.841 20.3492C116.851 20.3154 116.857 20.2808 116.86 20.2459C116.858 20.2115 116.854 20.1772 116.846 20.1435C116.842 20.1022 116.833 20.0615 116.82 20.0219C116.817 20.0139 116.818 20.0052 116.815 19.9969L114.999 15.8106L114.995 15.8085C114.97 15.7516 114.937 15.699 114.895 15.6526L109.448 9.62121C109.4 9.56747 109.344 9.52298 109.28 9.48985L100.978 5.27224C100.915 5.23978 100.846 5.21934 100.775 5.21199L92.7316 4.3899C92.6702 4.3841 92.6083 4.38815 92.5481 4.40181L92.544 4.39971L88.1329 5.4228C88.1241 5.42484 88.1178 5.43084 88.1095 5.43312C88.0705 5.44624 88.0329 5.4635 87.9974 5.48456C87.9662 5.49861 87.9361 5.51523 87.9076 5.53428C87.882 5.55787 87.8582 5.58361 87.8368 5.61119C87.8085 5.64037 87.7835 5.6725 87.7623 5.70715C87.7584 5.71497 87.7504 5.71937 87.7462 5.72767L85.4102 10.4161C85.4016 10.4333 85.4024 10.4526 85.3956 10.47C85.3783 10.5124 85.3663 10.5567 85.3598 10.602C85.3562 10.6323 85.3554 10.6629 85.3572 10.6934C85.3554 10.7148 85.3549 10.7364 85.3556 10.7579L89.2455 38.1852L89.2487 38.1868C89.2555 38.2199 89.2653 38.2523 89.2777 38.2838C89.2834 38.3047 89.2903 38.3252 89.2984 38.3453C89.3031 38.3554 89.3056 38.3659 89.3106 38.3756L89.3124 38.3811C89.3222 38.3953 89.3328 38.4089 89.3441 38.422C89.3679 38.4545 89.3921 38.4867 89.4169 38.5184L89.4196 38.5197C89.4525 38.5499 89.4888 38.576 89.5278 38.5976C89.5355 38.6015 89.542 38.6094 89.5498 38.6134C89.5576 38.6173 89.5576 38.6173 89.5623 38.6197C89.567 38.6221 89.5706 38.6239 89.5748 38.626C89.5789 38.6281 89.5924 38.6311 89.6005 38.6345C89.6408 38.6532 89.6833 38.6672 89.7269 38.6758L89.7295 38.6772C89.7695 38.6783 89.8095 38.6789 89.8496 38.6788C89.8667 38.6802 89.8838 38.6806 89.901 38.6801L89.9065 38.6783C89.9171 38.6765 89.9269 38.6724 89.9378 38.6701C89.9586 38.6647 89.979 38.6581 89.9991 38.6503C90.0315 38.6416 90.0631 38.6301 90.0936 38.616L90.0967 38.6176L114.226 25.4246C114.244 25.4124 114.261 25.3991 114.277 25.3849C114.302 25.3682 114.326 25.3493 114.348 25.3283C114.38 25.296 114.408 25.2598 114.431 25.2206C114.44 25.2039 114.457 25.1938 114.465 25.1766L116.8 20.4909C116.804 20.4824 116.803 20.4735 116.807 20.4655Z" fill="#C4BAFF"/>
<path d="M116.807 20.4655C116.823 20.4281 116.834 20.3891 116.841 20.3492C116.851 20.3154 116.857 20.2808 116.86 20.2459C116.858 20.2115 116.854 20.1772 116.846 20.1435C116.842 20.1022 116.833 20.0615 116.82 20.0219C116.817 20.0139 116.818 20.0052 116.815 19.9969L114.999 15.8106L114.995 15.8085C114.97 15.7516 114.937 15.699 114.895 15.6526L109.448 9.62121C109.4 9.56747 109.344 9.52298 109.28 9.48985L100.978 5.27224C100.915 5.23978 100.846 5.21934 100.775 5.21199L92.7316 4.3899C92.6702 4.3841 92.6083 4.38815 92.5481 4.40181L92.544 4.39971L88.1329 5.4228C88.1241 5.42484 88.1178 5.43084 88.1095 5.43312C88.0705 5.44624 88.0329 5.4635 87.9974 5.48456C87.9662 5.49861 87.9361 5.51523 87.9076 5.53428C87.882 5.55787 87.8582 5.58361 87.8368 5.61119C87.8085 5.64037 87.7835 5.6725 87.7623 5.70715C87.7584 5.71497 87.7504 5.71937 87.7462 5.72767L85.4102 10.4161C85.4016 10.4333 85.4024 10.4526 85.3956 10.47C85.3783 10.5124 85.3663 10.5567 85.3598 10.602C85.3562 10.6323 85.3554 10.6629 85.3572 10.6934C85.3554 10.7148 85.3549 10.7364 85.3556 10.7579L89.2455 38.1852L89.2487 38.1868C89.2555 38.2199 89.2653 38.2523 89.2777 38.2838C89.2834 38.3047 89.2903 38.3252 89.2984 38.3453C89.3031 38.3554 89.3056 38.3659 89.3106 38.3756L89.3124 38.3811C89.3222 38.3953 89.3328 38.4089 89.3441 38.422C89.3679 38.4545 89.3921 38.4867 89.4169 38.5184L89.4196 38.5197C89.4525 38.5499 89.4888 38.576 89.5278 38.5976C89.5355 38.6015 89.542 38.6094 89.5498 38.6134C89.5576 38.6173 89.5576 38.6173 89.5623 38.6197C89.567 38.6221 89.5706 38.6239 89.5748 38.626C89.5789 38.6281 89.5924 38.6311 89.6005 38.6345C89.6408 38.6532 89.6833 38.6672 89.7269 38.6758L89.7295 38.6772C89.7695 38.6783 89.8095 38.6789 89.8496 38.6788C89.8667 38.6802 89.8838 38.6806 89.901 38.6801L89.9065 38.6783C89.9171 38.6765 89.9269 38.6724 89.9378 38.6701C89.9586 38.6647 89.979 38.6581 89.9991 38.6503C90.0315 38.6416 90.0631 38.6301 90.0936 38.616L90.0967 38.6176L114.226 25.4246C114.244 25.4124 114.261 25.3991 114.277 25.3849C114.302 25.3682 114.326 25.3493 114.348 25.3283C114.38 25.296 114.408 25.2598 114.431 25.2206C114.44 25.2039 114.457 25.1938 114.465 25.1766L116.8 20.4909C116.804 20.4824 116.803 20.4735 116.807 20.4655ZM86.5724 11.0862L90.5682 9.76393L95.278 15.1712L92.9288 17.9167L88.838 13.1699C88.6275 12.9256 88.2609 12.8984 88.0191 13.109C87.7773 13.3196 87.7519 13.6885 87.9623 13.9328L92.3157 18.984L89.8529 34.2362L86.5724 11.0862ZM92.876 35.7719L103.55 24.6743L110.331 24.8982C110.54 24.9078 110.737 24.8036 110.848 24.6255C110.958 24.4473 110.964 24.2227 110.864 24.0375C110.764 23.8523 110.573 23.7354 110.363 23.7312L104.03 23.5226L104.805 20.011L111.912 20.6069L113.243 24.6352L92.876 35.7719Z" fill="url(#paint3_linear)"/>
<path d="M116.807 20.4655C116.823 20.4281 116.834 20.3891 116.841 20.3492C116.851 20.3154 116.857 20.2808 116.86 20.2459C116.858 20.2115 116.854 20.1772 116.846 20.1435C116.842 20.1022 116.833 20.0615 116.82 20.0219C116.817 20.0139 116.818 20.0052 116.815 19.9969L114.999 15.8106L114.995 15.8085C114.97 15.7516 114.937 15.699 114.895 15.6526L109.448 9.62121C109.4 9.56747 109.344 9.52298 109.28 9.48985L100.978 5.27224C100.915 5.23978 100.846 5.21934 100.775 5.21199L92.7316 4.3899C92.6702 4.3841 92.6083 4.38815 92.5481 4.40181L92.544 4.39971L88.1329 5.4228C88.1241 5.42484 88.1178 5.43084 88.1095 5.43312C88.0705 5.44624 88.0329 5.4635 87.9974 5.48456C87.9662 5.49861 87.9361 5.51523 87.9076 5.53428C87.882 5.55787 87.8582 5.58361 87.8368 5.61119C87.8085 5.64037 87.7835 5.6725 87.7623 5.70715C87.7584 5.71497 87.7504 5.71937 87.7462 5.72767L85.4102 10.4161C85.4016 10.4333 85.4024 10.4526 85.3956 10.47C85.3783 10.5124 85.3663 10.5567 85.3598 10.602C85.3562 10.6323 85.3554 10.6629 85.3572 10.6934C85.3554 10.7148 85.3549 10.7364 85.3556 10.7579L89.2455 38.1852L89.2487 38.1868C89.2555 38.2199 89.2653 38.2523 89.2777 38.2838C89.2834 38.3047 89.2903 38.3252 89.2984 38.3453C89.3031 38.3554 89.3056 38.3659 89.3106 38.3756L89.3124 38.3811C89.3222 38.3953 89.3328 38.4089 89.3441 38.422C89.3679 38.4545 89.3921 38.4867 89.4169 38.5184L89.4196 38.5197C89.4525 38.5499 89.4888 38.576 89.5278 38.5976C89.5355 38.6015 89.542 38.6094 89.5498 38.6134C89.5576 38.6173 89.5576 38.6173 89.5623 38.6197C89.567 38.6221 89.5706 38.6239 89.5748 38.626C89.5789 38.6281 89.5924 38.6311 89.6005 38.6345C89.6408 38.6532 89.6833 38.6672 89.7269 38.6758L89.7295 38.6772C89.7695 38.6783 89.8095 38.6789 89.8496 38.6788C89.8667 38.6802 89.8838 38.6806 89.901 38.6801L89.9065 38.6783C89.9171 38.6765 89.9269 38.6724 89.9378 38.6701C89.9586 38.6647 89.979 38.6581 89.9991 38.6503C90.0315 38.6416 90.0631 38.6301 90.0936 38.616L90.0967 38.6176L114.226 25.4246C114.244 25.4124 114.261 25.3991 114.277 25.3849C114.302 25.3682 114.326 25.3493 114.348 25.3283C114.38 25.296 114.408 25.2598 114.431 25.2206C114.44 25.2039 114.457 25.1938 114.465 25.1766L116.8 20.4909C116.804 20.4824 116.803 20.4735 116.807 20.4655ZM93.016 5.59251L100.556 6.36318L108.665 10.4827L113.771 16.1366L112.118 19.4538L104.507 18.8153L96.4099 14.7018L91.3631 8.90986L93.016 5.59251ZM88.6617 6.50151L91.6023 5.8196L90.1875 8.6592L87.0737 9.68852L88.6617 6.50151ZM86.5724 11.0862L90.5682 9.76393L95.278 15.1712L92.9288 17.9167L88.838 13.1699C88.6275 12.9256 88.2609 12.8984 88.0191 13.109C87.7773 13.3196 87.7519 13.6885 87.9623 13.9328L92.3157 18.984L89.8529 34.2362L86.5724 11.0862ZM90.6885 36.3632L93.3784 19.6897L100.975 23.5488C101.261 23.6944 101.61 23.5792 101.753 23.2914C101.897 23.0037 101.78 22.6525 101.494 22.5069L93.8565 18.627L96.1922 15.8968L103.684 19.7027L102.779 23.793L90.6885 36.3632ZM92.876 35.7719L103.55 24.6743L110.331 24.8982C110.54 24.9078 110.737 24.8036 110.848 24.6255C110.958 24.4473 110.964 24.2227 110.864 24.0375C110.764 23.8523 110.573 23.7354 110.363 23.7312L104.03 23.5226L104.805 20.011L111.912 20.6069L113.243 24.6352L92.876 35.7719ZM114.055 23.3958L113.018 20.2577L114.433 17.4181L115.643 20.2087L114.055 23.3958Z" fill="black"/>
<path d="M106.703 12.06L108.256 12.8479C108.542 12.9929 108.891 12.8769 109.034 12.5887C109.178 12.3006 109.063 11.9494 108.777 11.8044L107.223 11.0165C106.937 10.8715 106.589 10.9875 106.445 11.2757C106.301 11.5638 106.417 11.915 106.703 12.06Z" fill="black"/>
<path d="M98.9345 8.12144L104.631 11.01C104.917 11.1551 105.265 11.039 105.409 10.7509C105.553 10.4627 105.438 10.1116 105.152 9.96659L99.4553 7.07802C99.1693 6.93298 98.8209 7.04899 98.6771 7.33714C98.5332 7.6253 98.6485 7.97641 98.9345 8.12144Z" fill="black"/>
<path d="M170 4C164.544 4.00606 160.123 8.42751 160.117 13.8835V16.1165C160.117 21.575 164.542 26 170 26C175.459 26 179.884 21.575 179.884 16.1165V13.8835C179.878 8.42751 175.456 4.00606 170 4Z" fill="#FE9C72"/>
<path d="M170 4C164.544 4.00606 160.123 8.42751 160.117 13.8835V16.1165C160.117 21.575 164.542 26 170 26C175.459 26 179.884 21.575 179.884 16.1165V13.8835C179.878 8.42751 175.456 4.00606 170 4ZM170 25.2313C165.735 25.2314 162.034 22.2865 161.076 18.1298C162.713 21.5741 166.187 23.7688 170 23.7688C173.814 23.7688 177.287 21.5741 178.924 18.1298C177.967 22.2865 174.266 25.2314 170 25.2313Z" fill="#FEC772"/>
<path d="M170 6.35742C165.878 6.35742 162.536 9.69929 162.536 13.8217C162.536 17.9441 165.878 21.286 170 21.286C174.123 21.286 177.465 17.9441 177.465 13.8217C177.46 9.70124 174.121 6.36212 170 6.35742Z" fill="url(#paint4_linear)"/>
<path d="M174.084 11.9999L171.716 11.6573L170.652 9.51691C170.526 9.26522 170.275 9.10742 170.001 9.10742C169.728 9.10742 169.477 9.26522 169.35 9.51691L168.28 11.6592L165.917 11.9999C165.638 12.0382 165.405 12.2413 165.32 12.5206C165.235 12.7966 165.312 13.099 165.518 13.295L167.213 14.9312L166.808 17.2572C166.759 17.5373 166.868 17.8218 167.088 17.991C167.311 18.1647 167.61 18.1919 167.859 18.061L170.003 16.9481L172.139 18.061C172.388 18.1918 172.686 18.1647 172.909 17.991C173.13 17.8217 173.238 17.537 173.189 17.2568L172.787 14.9343L174.482 13.295C174.689 13.0992 174.766 12.7967 174.68 12.5206C174.596 12.2414 174.363 12.0384 174.084 11.9999Z" fill="url(#paint5_linear)"/>
<path d="M170 4C164.544 4.00606 160.123 8.42751 160.117 13.8835V16.1165C160.117 21.575 164.542 26 170 26C175.459 26 179.884 21.575 179.884 16.1165V13.8835C179.878 8.42751 175.456 4.00606 170 4ZM170 25.2313C165.735 25.2314 162.034 22.2865 161.076 18.1298C162.713 21.5741 166.187 23.7688 170 23.7688C173.814 23.7688 177.287 21.5741 178.924 18.1298C177.967 22.2865 174.266 25.2314 170 25.2313ZM170 23.0349C164.946 23.0349 160.849 18.9377 160.849 13.8835C160.849 8.82935 164.946 4.73212 170 4.73212C175.054 4.73212 179.152 8.82935 179.152 13.8835C179.146 18.9353 175.052 23.0293 170 23.0349Z" fill="#212121"/>
<path d="M170 6.19629C165.755 6.19629 162.313 9.63795 162.313 13.8835C162.313 18.129 165.755 21.5706 170 21.5706C174.246 21.5706 177.687 18.129 177.687 13.8835C177.682 9.63995 174.244 6.20113 170 6.19629ZM170 20.8385C166.159 20.8385 163.045 17.7246 163.045 13.8835C163.045 10.0423 166.159 6.92841 170 6.92841C173.841 6.92841 176.955 10.0423 176.955 13.8835C176.951 17.7229 173.84 20.8343 170 20.8385Z" fill="#212121"/>
<path d="M174.084 11.9999L171.716 11.6573L170.652 9.51691C170.526 9.26522 170.275 9.10742 170.001 9.10742C169.728 9.10742 169.477 9.26522 169.35 9.51691L168.28 11.6592L165.917 11.9999C165.638 12.0382 165.405 12.2413 165.32 12.5206C165.235 12.7966 165.312 13.099 165.518 13.295L167.213 14.9312L166.808 17.2572C166.759 17.5373 166.868 17.8218 167.088 17.991C167.311 18.1647 167.61 18.1919 167.859 18.061L170.003 16.9481L172.139 18.061C172.388 18.1918 172.686 18.1647 172.909 17.991C173.13 17.8217 173.238 17.537 173.189 17.2568L172.787 14.9343L174.482 13.295C174.688 13.0992 174.766 12.7967 174.68 12.5206C174.596 12.2414 174.363 12.0384 174.084 11.9999ZM172.293 14.3827C172.112 14.5558 172.029 14.8131 172.073 15.0645L172.465 17.3882L170.33 16.2757C170.122 16.1673 169.877 16.1673 169.669 16.2757L167.524 17.3901L167.926 15.0645C167.97 14.8134 167.887 14.5563 167.706 14.3831L166.015 12.7461L168.378 12.4073C168.613 12.3737 168.818 12.2236 168.928 12.0048L170.005 9.86028V9.86252L171.07 12.0029C171.18 12.2219 171.385 12.372 171.621 12.4054L173.988 12.7442L172.293 14.3827Z" fill="#212121"/>
<path d="M153.977 37.9619C154.005 37.9425 154.032 37.9201 154.056 37.8949C154.078 37.875 154.099 37.8532 154.118 37.8299C154.133 37.8043 154.146 37.7776 154.156 37.75C154.172 37.7184 154.185 37.6852 154.195 37.6508C154.196 37.6436 154.201 37.6379 154.203 37.6302L154.87 33.7811L154.869 33.7777C154.877 33.7253 154.878 33.6718 154.87 33.6192L153.806 26.7428C153.797 26.6821 153.778 26.6236 153.748 26.5701L149.788 19.6502C149.758 19.5971 149.718 19.5501 149.671 19.5115L144.301 15.1433C144.26 15.1103 144.214 15.0841 144.164 15.0656L144.163 15.0621L140.525 13.7213C140.518 13.7186 140.51 13.72 140.503 13.7177C140.469 13.7087 140.434 13.7034 140.399 13.7018C140.37 13.6972 140.341 13.695 140.311 13.6952C140.282 13.7 140.253 13.7073 140.225 13.717C140.191 13.7246 140.158 13.7358 140.126 13.7506C140.12 13.7544 140.112 13.7538 140.105 13.7578L136.23 16.0151C136.216 16.0234 136.207 16.0376 136.194 16.0469C136.162 16.0691 136.133 16.0952 136.107 16.1245C136.09 16.1445 136.075 16.1661 136.062 16.1887C136.05 16.2032 136.04 16.2184 136.03 16.2341L125.926 37.6903L125.927 37.6929C125.917 37.7199 125.908 37.7476 125.902 37.776C125.897 37.7936 125.892 37.8115 125.888 37.8297C125.887 37.8392 125.884 37.8479 125.883 37.8571L125.881 37.8619C125.882 37.8767 125.883 37.8914 125.885 37.9061C125.887 37.9405 125.889 37.975 125.892 38.0093L125.893 38.0115C125.902 38.0486 125.916 38.0843 125.934 38.1181C125.938 38.1245 125.939 38.1333 125.942 38.1397C125.946 38.1462 125.946 38.1462 125.948 38.1501C125.95 38.154 125.952 38.1571 125.954 38.1605C125.956 38.164 125.964 38.1725 125.969 38.1787C125.989 38.211 126.012 38.2409 126.04 38.2677L126.041 38.2698C126.069 38.2895 126.097 38.3087 126.126 38.3275C126.138 38.3364 126.15 38.3448 126.162 38.3525L126.167 38.3538C126.175 38.3575 126.184 38.3592 126.193 38.3627C126.211 38.3686 126.228 38.3734 126.246 38.3773C126.274 38.3863 126.302 38.3929 126.33 38.3972L126.332 38.3997L149.799 40.298C149.818 40.2975 149.836 40.2959 149.854 40.2933C149.88 40.2933 149.906 40.2909 149.932 40.2862C149.97 40.2782 150.007 40.2655 150.042 40.2484C150.056 40.2404 150.073 40.2413 150.087 40.233L153.96 37.9769C153.967 37.9728 153.97 37.966 153.977 37.9619Z" fill="#C4BAFF"/>
<path d="M153.977 37.9619C154.005 37.9425 154.032 37.9201 154.056 37.8949C154.078 37.875 154.099 37.8532 154.118 37.8299C154.133 37.8043 154.146 37.7776 154.156 37.75C154.172 37.7184 154.185 37.6852 154.195 37.6508C154.196 37.6436 154.201 37.6379 154.203 37.6302L154.87 33.7811L154.869 33.7777C154.877 33.7253 154.878 33.6718 154.87 33.6192L153.806 26.7428C153.797 26.6821 153.778 26.6236 153.748 26.5701L149.788 19.6502C149.758 19.5971 149.718 19.5501 149.671 19.5115L144.301 15.1433C144.26 15.1103 144.214 15.0841 144.164 15.0656L144.163 15.0621L140.525 13.7213C140.518 13.7186 140.51 13.72 140.503 13.7177C140.469 13.7087 140.434 13.7034 140.399 13.7018C140.37 13.6972 140.341 13.695 140.311 13.6952C140.282 13.7 140.253 13.7073 140.225 13.717C140.191 13.7246 140.158 13.7358 140.126 13.7506C140.12 13.7544 140.112 13.7538 140.105 13.7578L136.23 16.0151C136.216 16.0234 136.207 16.0376 136.194 16.0469C136.162 16.0691 136.133 16.0952 136.107 16.1245C136.09 16.1445 136.075 16.1661 136.062 16.1887C136.05 16.2032 136.04 16.2184 136.03 16.2341L125.926 37.6903L125.927 37.6929C125.917 37.7199 125.908 37.7476 125.902 37.776C125.897 37.7936 125.892 37.8115 125.888 37.8297C125.887 37.8392 125.884 37.8479 125.883 37.8571L125.881 37.8619C125.882 37.8767 125.883 37.8914 125.885 37.9061C125.887 37.9405 125.889 37.975 125.892 38.0093L125.893 38.0115C125.902 38.0486 125.916 38.0843 125.934 38.1181C125.938 38.1245 125.939 38.1333 125.942 38.1397C125.946 38.1462 125.946 38.1462 125.948 38.1501C125.95 38.154 125.952 38.1571 125.954 38.1605C125.956 38.164 125.964 38.1725 125.969 38.1787C125.989 38.211 126.012 38.2409 126.04 38.2677L126.041 38.2698C126.069 38.2895 126.097 38.3087 126.126 38.3275C126.138 38.3364 126.15 38.3448 126.162 38.3525L126.167 38.3538C126.175 38.3575 126.184 38.3592 126.193 38.3627C126.211 38.3686 126.228 38.3734 126.246 38.3773C126.274 38.3863 126.302 38.3929 126.33 38.3972L126.332 38.3997L149.799 40.298C149.818 40.2975 149.836 40.2959 149.854 40.2933C149.88 40.2933 149.906 40.2909 149.932 40.2862C149.97 40.2782 150.007 40.2655 150.042 40.2484C150.056 40.2404 150.073 40.2413 150.087 40.233L153.96 37.9769C153.967 37.9728 153.97 37.966 153.977 37.9619ZM136.747 17.0409L140.228 17.9725L141.057 24.0555L138.086 24.9163L137.389 19.5968C137.353 19.3231 137.104 19.1313 136.832 19.1684C136.56 19.2055 136.368 19.4575 136.404 19.7312L137.146 25.392L128.216 35.1496L136.747 17.0409ZM129.658 37.6694L142.512 34.7438L147.259 38.0907C147.404 38.1958 147.594 38.2139 147.757 38.1383C147.92 38.0627 148.03 37.9049 148.045 37.7253C148.06 37.5457 147.979 37.3721 147.831 37.2709L143.397 34.1453L145.601 31.9961L150.407 35.7626L149.467 39.271L129.658 37.6694Z" fill="url(#paint6_linear)"/>
<path d="M153.977 37.9619C154.005 37.9425 154.032 37.9201 154.056 37.8949C154.078 37.875 154.099 37.8532 154.118 37.8299C154.133 37.8043 154.146 37.7776 154.156 37.75C154.172 37.7184 154.185 37.6852 154.195 37.6508C154.196 37.6436 154.201 37.6379 154.203 37.6302L154.87 33.7811L154.869 33.7777C154.877 33.7253 154.878 33.6718 154.87 33.6192L153.806 26.7428C153.797 26.6821 153.778 26.6236 153.748 26.5701L149.788 19.6502C149.758 19.5971 149.718 19.5501 149.671 19.5115L144.301 15.1433C144.26 15.1103 144.214 15.0841 144.164 15.0656L144.163 15.0621L140.525 13.7213C140.518 13.7186 140.51 13.72 140.503 13.7177C140.469 13.7087 140.434 13.7034 140.399 13.7018C140.37 13.6972 140.341 13.695 140.311 13.6952C140.282 13.7 140.253 13.7073 140.225 13.717C140.191 13.7246 140.158 13.7358 140.126 13.7506C140.12 13.7544 140.112 13.7538 140.105 13.7578L136.23 16.0151C136.216 16.0234 136.207 16.0376 136.194 16.0469C136.162 16.0691 136.133 16.0952 136.107 16.1245C136.09 16.1445 136.075 16.1661 136.062 16.1887C136.05 16.2032 136.04 16.2184 136.03 16.2341L125.926 37.6903L125.927 37.6929C125.917 37.7199 125.908 37.7476 125.902 37.776C125.897 37.7936 125.892 37.8115 125.888 37.8297C125.887 37.8392 125.884 37.8479 125.883 37.8571L125.881 37.8619C125.882 37.8767 125.883 37.8914 125.885 37.9061C125.887 37.9405 125.889 37.975 125.892 38.0093L125.893 38.0115C125.902 38.0486 125.916 38.0843 125.934 38.1181C125.938 38.1245 125.939 38.1333 125.942 38.1397C125.946 38.1462 125.946 38.1462 125.948 38.1501C125.95 38.154 125.952 38.1571 125.954 38.1605C125.956 38.164 125.964 38.1725 125.969 38.1787C125.989 38.211 126.012 38.2409 126.04 38.2677L126.041 38.2698C126.069 38.2895 126.097 38.3087 126.126 38.3275C126.138 38.3364 126.15 38.3448 126.162 38.3525L126.167 38.3538C126.175 38.3575 126.184 38.3592 126.193 38.3627C126.211 38.3686 126.228 38.3734 126.246 38.3773C126.274 38.3863 126.302 38.3929 126.33 38.3972L126.332 38.3997L149.799 40.298C149.818 40.2975 149.836 40.2959 149.854 40.2933C149.88 40.2933 149.906 40.2909 149.932 40.2862C149.97 40.2782 150.007 40.2655 150.042 40.2484C150.056 40.2404 150.073 40.2413 150.087 40.233L153.96 37.9769C153.967 37.9728 153.97 37.966 153.977 37.9619ZM143.94 16.1376L148.973 20.2324L152.841 26.9913L153.838 33.4373L151.097 35.0345L145.95 31.0006L142.088 24.2515L141.198 17.7348L143.94 16.1376ZM140.397 14.7418L142.821 15.6358L140.474 17.003L137.762 16.2763L140.397 14.7418ZM136.747 17.0409L140.228 17.9725L141.057 24.0555L138.086 24.9163L137.389 19.5968C137.353 19.3231 137.104 19.1313 136.832 19.1684C136.56 19.2055 136.368 19.4575 136.404 19.7312L137.146 25.392L128.216 35.1496L136.747 17.0409ZM127.815 37.0646L137.575 26.3964L141.198 32.7281C141.334 32.9669 141.638 33.0483 141.876 32.9097C142.113 32.7712 142.195 32.4653 142.059 32.2265L138.416 25.8606L141.371 25.0045L144.944 31.2487L142.374 33.7508L127.815 37.0646ZM129.658 37.6694L142.512 34.7438L147.259 38.0907C147.404 38.1958 147.594 38.2139 147.757 38.1383C147.92 38.0627 148.03 37.9049 148.045 37.7253C148.06 37.5457 147.979 37.3721 147.831 37.2709L143.397 34.1453L145.601 31.9961L150.407 35.7626L149.467 39.271L129.658 37.6694ZM150.631 38.7659L151.363 36.0327L153.71 34.6654L153.265 37.2314L150.631 38.7659Z" fill="black"/>
<path d="M150.658 27.2324L151.402 28.532C151.539 28.7713 151.843 28.8532 152.08 28.7151C152.318 28.5769 152.399 28.271 152.262 28.0317L151.518 26.732C151.381 26.4928 151.077 26.4108 150.84 26.549C150.602 26.6872 150.521 26.9931 150.658 27.2324Z" fill="black"/>
<path d="M146.935 20.7334L149.665 25.4989C149.802 25.7382 150.106 25.8201 150.343 25.6819C150.581 25.5438 150.662 25.2378 150.525 24.9986L147.795 20.233C147.658 19.9937 147.354 19.9118 147.117 20.05C146.879 20.1881 146.798 20.4941 146.935 20.7334Z" fill="black"/>
<defs>
<linearGradient id="paint0_linear" x1="9.19831" y1="5.09051" x2="20.1026" y2="23.8085" gradientUnits="userSpaceOnUse">
<stop stop-color="#AAEBEF"/>
<stop offset="1" stop-color="#AAEBEF" stop-opacity="0"/>
</linearGradient>
<linearGradient id="paint1_linear" x1="50.0002" y1="11.4287" x2="50.0002" y2="33.143" gradientUnits="userSpaceOnUse">
<stop stop-color="#FE9C72"/>
<stop offset="1" stop-color="#FE9C72" stop-opacity="0"/>
</linearGradient>
<linearGradient id="paint2_linear" x1="50.0002" y1="15.4287" x2="50.0002" y2="28.5716" gradientUnits="userSpaceOnUse">
<stop stop-color="#FFCF85"/>
<stop offset="1" stop-color="#FFCF85" stop-opacity="0"/>
</linearGradient>
<linearGradient id="paint3_linear" x1="105.128" y1="7.38029" x2="89.3201" y2="38.4967" gradientUnits="userSpaceOnUse">
<stop stop-color="#AAEBEF"/>
<stop offset="1" stop-color="#AAEBEF" stop-opacity="0"/>
</linearGradient>
<linearGradient id="paint4_linear" x1="170" y1="6.35742" x2="170" y2="21.286" gradientUnits="userSpaceOnUse">
<stop stop-color="#FE9C72"/>
<stop offset="1" stop-color="#FE9C72" stop-opacity="0"/>
</linearGradient>
<linearGradient id="paint5_linear" x1="170" y1="9.10742" x2="170" y2="18.1431" gradientUnits="userSpaceOnUse">
<stop stop-color="#FFCF85"/>
<stop offset="1" stop-color="#FFCF85" stop-opacity="0"/>
</linearGradient>
<linearGradient id="paint6_linear" x1="151.767" y1="23.1089" x2="125.833" y2="37.9484" gradientUnits="userSpaceOnUse">
<stop stop-color="#AAEBEF"/>
<stop offset="1" stop-color="#AAEBEF" stop-opacity="0"/>
</linearGradient>
</defs>
</svg>
