<svg width="32" height="32" viewBox="0 0 32 32" fill="none" xmlns="http://www.w3.org/2000/svg">
<path d="M27.996 8.38473C27.9941 8.35692 27.9889 8.32943 27.9806 8.3027C27.9755 8.27911 27.9684 8.25594 27.9592 8.23348C27.9466 8.21293 27.9323 8.19338 27.9163 8.17504C27.8998 8.15112 27.8808 8.12884 27.8593 8.10858C27.8546 8.1046 27.8524 8.09897 27.8473 8.09498L25.2757 6.0939H25.2723C25.2372 6.06679 25.1977 6.04503 25.1553 6.02946L19.5835 4.02842C19.5346 4.01022 19.4826 4.00061 19.43 4H12.5724C12.5198 3.99991 12.4676 4.00886 12.4186 4.02641L6.84679 6.02749C6.8044 6.04306 6.76492 6.06482 6.72976 6.09193H6.72635L4.15475 8.09301C4.14962 8.097 4.14747 8.10263 4.14274 8.10661C4.1213 8.12683 4.10221 8.1491 4.08574 8.17307C4.06976 8.19141 4.0554 8.21096 4.04289 8.23151C4.0337 8.25397 4.02652 8.27714 4.02145 8.30073C4.01241 8.32742 4.00648 8.3549 4.00387 8.38276C4.00387 8.38876 4 8.39397 4 8.40035V12.0023C4 12.0155 4.00688 12.0271 4.00814 12.0399C4.01065 12.0712 4.01728 12.1021 4.02788 12.1319C4.03546 12.1516 4.04495 12.1707 4.05615 12.1888C4.06203 12.2025 4.06876 12.2158 4.07629 12.2288L15.6485 27.8323H15.6511C15.6665 27.8505 15.6835 27.8673 15.702 27.8828C15.7127 27.8938 15.724 27.9042 15.7359 27.914C15.7423 27.9188 15.7474 27.9244 15.7539 27.9288L15.7569 27.9316C15.768 27.9373 15.7795 27.9423 15.7912 27.9468C15.8176 27.9593 15.8441 27.9715 15.8709 27.9832H15.8731C15.9046 27.9915 15.9371 27.9962 15.9699 27.9972C15.9764 27.9972 15.9832 28 15.9897 28C15.9961 28 15.9961 28 16 28C16.0038 28 16.0069 28 16.0103 28C16.0137 28 16.0236 27.9977 16.03 27.9972C16.0628 27.9962 16.0953 27.9915 16.1269 27.9832H16.1291C16.1558 27.9714 16.1824 27.9593 16.2088 27.9468C16.2205 27.9423 16.2319 27.9373 16.2431 27.9316L16.2461 27.9288C16.2525 27.9244 16.2576 27.9188 16.2641 27.914C16.276 27.9042 16.2873 27.8938 16.2979 27.8828C16.3165 27.8673 16.3335 27.8505 16.3489 27.8323H16.3515L27.9237 12.2288C27.9312 12.2158 27.938 12.2025 27.9438 12.1888C27.9551 12.1707 27.9645 12.1516 27.9721 12.1319C27.9827 12.1021 27.9894 12.0712 27.9919 12.0399C27.9919 12.0271 28 12.0154 28 12.0023V8.40236C27.9999 8.39594 27.9964 8.39073 27.996 8.38473Z" fill="#C4BAFF"/>
<path d="M27.996 8.38473C27.9941 8.35692 27.9889 8.32943 27.9806 8.3027C27.9755 8.27911 27.9684 8.25594 27.9592 8.23348C27.9466 8.21293 27.9323 8.19338 27.9163 8.17504C27.8998 8.15112 27.8808 8.12884 27.8593 8.10858C27.8546 8.1046 27.8524 8.09897 27.8473 8.09498L25.2757 6.0939H25.2723C25.2372 6.06679 25.1977 6.04503 25.1553 6.02946L19.5835 4.02842C19.5346 4.01022 19.4826 4.00061 19.43 4H12.5724C12.5198 3.99991 12.4676 4.00886 12.4186 4.02641L6.84679 6.02749C6.8044 6.04306 6.76492 6.06482 6.72976 6.09193H6.72635L4.15475 8.09301C4.14962 8.097 4.14747 8.10263 4.14274 8.10661C4.1213 8.12683 4.10221 8.1491 4.08574 8.17307C4.06976 8.19141 4.0554 8.21096 4.04289 8.23151C4.0337 8.25397 4.02652 8.27714 4.02145 8.30073C4.01241 8.32742 4.00648 8.3549 4.00387 8.38276C4.00387 8.38876 4 8.39397 4 8.40035V12.0023C4 12.0155 4.00688 12.0271 4.00814 12.0399C4.01065 12.0712 4.01728 12.1021 4.02788 12.1319C4.03546 12.1516 4.04495 12.1707 4.05615 12.1888C4.06203 12.2025 4.06876 12.2158 4.07629 12.2288L15.6485 27.8323H15.6511C15.6665 27.8505 15.6835 27.8673 15.702 27.8828C15.7127 27.8938 15.724 27.9042 15.7359 27.914C15.7423 27.9188 15.7474 27.9244 15.7539 27.9288L15.7569 27.9316C15.768 27.9373 15.7795 27.9423 15.7912 27.9468C15.8176 27.9593 15.8441 27.9715 15.8709 27.9832H15.8731C15.9046 27.9915 15.9371 27.9962 15.9699 27.9972C15.9764 27.9972 15.9832 28 15.9897 28C15.9961 28 15.9961 28 16 28C16.0038 28 16.0069 28 16.0103 28C16.0137 28 16.0236 27.9977 16.03 27.9972C16.0628 27.9962 16.0953 27.9915 16.1269 27.9832H16.1291C16.1558 27.9714 16.1824 27.9593 16.2088 27.9468C16.2205 27.9423 16.2319 27.9373 16.2431 27.9316L16.2461 27.9288C16.2525 27.9244 16.2576 27.9188 16.2641 27.914C16.276 27.9042 16.2873 27.8938 16.2979 27.8828C16.3165 27.8673 16.3335 27.8505 16.3489 27.8323H16.3515L27.9237 12.2288C27.9312 12.2158 27.938 12.2025 27.9438 12.1888C27.9551 12.1707 27.9645 12.1516 27.9721 12.1319C27.9827 12.1021 27.9894 12.0712 27.9919 12.0399C27.9919 12.0271 28 12.0154 28 12.0023V8.40236C27.9999 8.39594 27.9964 8.39073 27.996 8.38473ZM4.9862 12.0511L7.18577 9.99598L12.0662 11.8442L11.4195 14.259L7.16392 12.623C6.94498 12.5388 6.69435 12.6363 6.60415 12.8407C6.51394 13.0451 6.61836 13.2792 6.8373 13.3634L11.3659 15.1043L14.7518 25.2221L4.9862 12.0511ZM17.2489 25.2221L20.64 15.0939L25.1831 13.1193C25.324 13.0601 25.4199 12.9348 25.4342 12.7912C25.4484 12.6476 25.3788 12.5079 25.2519 12.4256C25.125 12.3433 24.9606 12.3311 24.8214 12.3937L20.5783 14.2383L19.9354 11.8442L24.8158 9.99603L27.0163 12.0511L17.2489 25.2221Z" fill="#AAEBEF"/>
<path d="M27.996 8.38473C27.9941 8.35692 27.9889 8.32943 27.9806 8.3027C27.9755 8.27911 27.9684 8.25594 27.9592 8.23348C27.9466 8.21293 27.9323 8.19338 27.9163 8.17504C27.8998 8.15112 27.8808 8.12884 27.8593 8.10858C27.8546 8.1046 27.8524 8.09897 27.8473 8.09498L25.2757 6.0939H25.2723C25.2372 6.06679 25.1977 6.04503 25.1553 6.02946L19.5835 4.02842C19.5346 4.01022 19.4826 4.00061 19.43 4H12.5724C12.5198 3.99991 12.4676 4.00886 12.4186 4.02641L6.84679 6.02749C6.8044 6.04306 6.76492 6.06482 6.72976 6.09193H6.72635L4.15475 8.09301C4.14962 8.097 4.14747 8.10263 4.14274 8.10661C4.1213 8.12683 4.10221 8.1491 4.08574 8.17307C4.06976 8.19141 4.0554 8.21096 4.04289 8.23151C4.0337 8.25397 4.02652 8.27714 4.02145 8.30073C4.01241 8.32742 4.00648 8.3549 4.00387 8.38276C4.00387 8.38876 4 8.39397 4 8.40035V12.0023C4 12.0155 4.00688 12.0271 4.00814 12.0399C4.01065 12.0712 4.01728 12.1021 4.02788 12.1319C4.03546 12.1516 4.04495 12.1707 4.05615 12.1888C4.06203 12.2025 4.06876 12.2158 4.07629 12.2288L15.6485 27.8323H15.6511C15.6665 27.8505 15.6835 27.8673 15.702 27.8828C15.7127 27.8938 15.724 27.9042 15.7359 27.914C15.7423 27.9188 15.7474 27.9244 15.7539 27.9288L15.7569 27.9316C15.768 27.9373 15.7795 27.9423 15.7912 27.9468C15.8176 27.9593 15.8441 27.9715 15.8709 27.9832H15.8731C15.9046 27.9915 15.9371 27.9962 15.9699 27.9972C15.9764 27.9972 15.9832 28 15.9897 28C15.9961 28 15.9961 28 16 28C16.0038 28 16.0069 28 16.0103 28C16.0137 28 16.0236 27.9977 16.03 27.9972C16.0628 27.9962 16.0953 27.9915 16.1269 27.9832H16.1291C16.1558 27.9714 16.1824 27.9593 16.2088 27.9468C16.2205 27.9423 16.2319 27.9373 16.2431 27.9316L16.2461 27.9288C16.2525 27.9244 16.2576 27.9188 16.2641 27.914C16.276 27.9042 16.2873 27.8938 16.2979 27.8828C16.3165 27.8673 16.3335 27.8505 16.3489 27.8323H16.3515L27.9237 12.2288C27.9312 12.2158 27.938 12.2025 27.9438 12.1888C27.9551 12.1707 27.9645 12.1516 27.9721 12.1319C27.9827 12.1021 27.9894 12.0712 27.9919 12.0399C27.9919 12.0271 28 12.0154 28 12.0023V8.40236C27.9999 8.39594 27.9964 8.39073 27.996 8.38473ZM7.42922 6.67621L12.6522 4.80044H19.3503L24.5732 6.67626V9.2248L19.3465 11.2038H12.6582L7.42922 9.2248V6.67621ZM4.85762 8.58964L6.572 7.25571V9.43726L4.85762 11.0381V8.58964ZM4.9862 12.0511L7.18577 9.99598L12.0662 11.8442L11.4195 14.259L7.16392 12.623C6.94498 12.5388 6.69435 12.6363 6.60415 12.8407C6.51394 13.0451 6.61836 13.2792 6.8373 13.3634L11.3659 15.1043L14.7518 25.2221L4.9862 12.0511ZM16.0012 26.2659L12.2981 15.206H18.5728C18.8095 15.206 19.0014 15.0268 19.0014 14.8058C19.0014 14.5847 18.8095 14.4056 18.5728 14.4056H12.2643L12.9072 12.0043H19.0953L19.8424 14.7938L16.0012 26.2659ZM17.2489 25.2221L20.64 15.0939L25.1831 13.1193C25.324 13.0601 25.4199 12.9348 25.4342 12.7912C25.4484 12.6476 25.3788 12.5079 25.2519 12.4256C25.125 12.3433 24.9606 12.3311 24.8214 12.3937L20.5783 14.2383L19.9354 11.8442L24.8158 9.99603L27.0163 12.0511L17.2489 25.2221ZM27.1448 11.0381L25.4305 9.43731V7.25575L27.1448 8.58968V11.0381Z" fill="#24282A"/>
<path d="M18.4 6.99951H19.6C19.8209 6.99951 20 6.77567 20 6.49951C20 6.22335 19.8209 5.99951 19.6 5.99951H18.4C18.1791 5.99951 18 6.22335 18 6.49951C18 6.77567 18.1791 6.99951 18.4 6.99951Z" fill="#24282A"/>
<path d="M12.3846 6.99951H16.6154C16.8278 6.99951 17 6.77567 17 6.49951C17 6.22335 16.8278 5.99951 16.6154 5.99951H12.3846C12.1722 5.99951 12 6.22335 12 6.49951C12 6.77567 12.1722 6.99951 12.3846 6.99951Z" fill="#24282A"/>
</svg>
