<svg width="16" height="16" viewBox="0 0 16 16" fill="none" xmlns="http://www.w3.org/2000/svg">
<path d="M15 12.5C15 12.7761 14.7761 13 14.5 13H11.5C11.2239 13 11 12.7761 11 12.5V3.5C11 3.22386 11.2239 3 11.5 3H14.5C14.7761 3 15 3.22386 15 3.5V12.5Z" fill="#757575"/>
<path d="M10 12.5C10 12.7761 9.77614 13 9.5 13H6.5C6.22386 13 6 12.7761 6 12.5V6.5C6 6.22386 6.22386 6 6.5 6H9.5C9.77614 6 10 6.22386 10 6.5V12.5Z" fill="#757575"/>
<path d="M5 12.5C5 12.7761 4.77614 13 4.5 13H1.5C1.22386 13 1 12.7761 1 12.5V8.5C1 8.22386 1.22386 8 1.5 8H4.5C4.77614 8 5 8.22386 5 8.5V12.5Z" fill="#757575"/>
</svg>
