<svg width="18" height="16" viewBox="0 0 18 16" fill="none" xmlns="http://www.w3.org/2000/svg">
<path d="M15.3434 2.51226C14.9768 2.13856 14.5417 1.84211 14.0627 1.63985C13.5837 1.4376 13.0704 1.3335 12.5519 1.3335C12.0335 1.3335 11.5201 1.4376 11.0411 1.63985C10.5621 1.84211 10.127 2.13856 9.76046 2.51226L8.99981 3.28746L8.23916 2.51226C7.49882 1.75776 6.4947 1.33389 5.44771 1.33389C4.40071 1.33389 3.39659 1.75776 2.65626 2.51226C1.91592 3.26676 1.5 4.29008 1.5 5.3571C1.5 6.42412 1.91592 7.44744 2.65626 8.20194L3.41691 8.97714L8.99981 14.6668L14.5827 8.97714L15.3434 8.20194C15.71 7.82842 16.0009 7.38492 16.1994 6.89679C16.3979 6.40867 16.5 5.88547 16.5 5.3571C16.5 4.82873 16.3979 4.30554 16.1994 3.81741C16.0009 3.32928 15.71 2.88579 15.3434 2.51226V2.51226Z" stroke="#24282A" stroke-width="2" stroke-linecap="round" stroke-linejoin="round"/>
</svg>
