<svg width="133" height="32" viewBox="0 0 133 32" fill="none" xmlns="http://www.w3.org/2000/svg">
<path d="M53.8 8.79997C54.3067 8.79997 54.72 8.96664 55.04 9.29997C55.36 9.6333 55.52 10.0666 55.52 10.6V21.48C55.52 21.9866 55.3733 22.3866 55.08 22.68C54.7867 22.9733 54.4 23.12 53.92 23.12C53.4533 23.12 53.0667 22.9733 52.76 22.68C52.4667 22.3866 52.32 21.9866 52.32 21.48V15.6L50.04 19.8C49.8133 20.2266 49.5733 20.5333 49.32 20.72C49.0667 20.8933 48.7667 20.98 48.42 20.98C48.0733 20.98 47.7733 20.8933 47.52 20.72C47.2667 20.5333 47.0267 20.2266 46.8 19.8L44.54 15.72V21.48C44.54 21.9733 44.3867 22.3733 44.08 22.68C43.7867 22.9733 43.4 23.12 42.92 23.12C42.4533 23.12 42.0667 22.9733 41.76 22.68C41.4667 22.3866 41.32 21.9866 41.32 21.48V10.6C41.32 10.0666 41.48 9.6333 41.8 9.29997C42.1333 8.96664 42.5533 8.79997 43.06 8.79997C43.42 8.79997 43.7467 8.90664 44.04 9.11997C44.3333 9.31997 44.58 9.6133 44.78 9.99997L48.46 16.92L52.12 9.99997C52.5333 9.19997 53.0933 8.79997 53.8 8.79997Z" fill="#24282A"/>
<path d="M64.4559 13.96C64.6026 13.6266 64.8026 13.38 65.0559 13.22C65.3093 13.06 65.5893 12.98 65.8959 12.98C66.3359 12.98 66.7293 13.1266 67.0759 13.42C67.4226 13.7133 67.5959 14.0666 67.5959 14.48C67.5959 14.7066 67.5426 14.9266 67.4359 15.14L62.1359 25.76C61.9759 26.0933 61.7626 26.34 61.4959 26.5C61.2426 26.66 60.9626 26.74 60.6559 26.74C60.2159 26.74 59.8226 26.5933 59.4759 26.3C59.1426 26.02 58.9759 25.6733 58.9759 25.26C58.9759 25.0333 59.0359 24.8 59.1559 24.56L60.4559 21.94L57.0559 15.14C56.9493 14.9 56.8959 14.6866 56.8959 14.5C56.8959 14.0733 57.0826 13.7133 57.4559 13.42C57.8293 13.1133 58.2493 12.96 58.7159 12.96C59.0359 12.96 59.3293 13.0466 59.5959 13.22C59.8759 13.38 60.0893 13.6266 60.2359 13.96L62.3559 18.56L64.4559 13.96Z" fill="#24282A"/>
<path d="M69.9433 19.02C68.8366 19.02 68.2833 18.5533 68.2833 17.62C68.2833 16.7 68.8366 16.24 69.9433 16.24H73.7033C74.2633 16.24 74.6766 16.36 74.9433 16.6C75.2233 16.84 75.3633 17.18 75.3633 17.62C75.3633 18.06 75.2233 18.4066 74.9433 18.66C74.6766 18.9 74.2633 19.02 73.7033 19.02H69.9433Z" fill="#24282A"/>
<path d="M84.2491 23.18C82.8357 23.18 81.5957 22.8866 80.5291 22.3C79.4757 21.7133 78.6557 20.8733 78.0691 19.78C77.4957 18.6866 77.2091 17.4066 77.2091 15.94C77.2091 14.4866 77.4957 13.2133 78.0691 12.12C78.6557 11.0266 79.4757 10.1866 80.5291 9.59997C81.5957 9.0133 82.8357 8.71997 84.2491 8.71997C85.9424 8.71997 87.4291 9.16664 88.7091 10.06C88.9357 10.22 89.0957 10.3933 89.1891 10.58C89.2957 10.7666 89.3491 11.0066 89.3491 11.3C89.3491 11.7133 89.2291 12.0666 88.9891 12.36C88.7624 12.64 88.4824 12.78 88.1491 12.78C87.9491 12.78 87.7691 12.7533 87.6091 12.7C87.4491 12.6333 87.2624 12.5333 87.0491 12.4C86.5824 12.12 86.1424 11.92 85.7291 11.8C85.3157 11.68 84.8891 11.62 84.4491 11.62C83.2624 11.62 82.3757 11.98 81.7891 12.7C81.2157 13.4066 80.9291 14.4866 80.9291 15.94C80.9291 17.4066 81.2157 18.5 81.7891 19.22C82.3757 19.9266 83.2624 20.28 84.4491 20.28C84.8491 20.28 85.2357 20.22 85.6091 20.1C85.9824 19.9666 86.4624 19.7666 87.0491 19.5C87.3291 19.3533 87.5357 19.2533 87.6691 19.2C87.8024 19.1466 87.9624 19.12 88.1491 19.12C88.4824 19.12 88.7624 19.2666 88.9891 19.56C89.2291 19.84 89.3491 20.1866 89.3491 20.6C89.3491 20.88 89.2957 21.12 89.1891 21.32C89.0957 21.5066 88.9357 21.68 88.7091 21.84C87.4291 22.7333 85.9424 23.18 84.2491 23.18Z" fill="#24282A"/>
<path d="M97.5838 12.92C98.7304 12.92 99.5838 13.2733 100.144 13.98C100.704 14.6733 100.984 15.7333 100.984 17.16V21.48C100.984 21.9866 100.824 22.3866 100.504 22.68C100.184 22.9733 99.7504 23.12 99.2038 23.12C98.6571 23.12 98.2238 22.9733 97.9038 22.68C97.5838 22.3866 97.4238 21.9866 97.4238 21.48V17.08C97.4238 16.12 97.0104 15.64 96.1838 15.64C95.6504 15.64 95.2238 15.8133 94.9038 16.16C94.5971 16.4933 94.4438 16.9466 94.4438 17.52V21.48C94.4438 21.9866 94.2838 22.3866 93.9638 22.68C93.6438 22.9733 93.2104 23.12 92.6638 23.12C92.1171 23.12 91.6838 22.9733 91.3638 22.68C91.0438 22.3866 90.8838 21.9866 90.8838 21.48V10.4C90.8838 9.9333 91.0504 9.5533 91.3838 9.25997C91.7171 8.9533 92.1571 8.79997 92.7038 8.79997C93.2238 8.79997 93.6438 8.93997 93.9638 9.21997C94.2838 9.49997 94.4438 9.8733 94.4438 10.34V14.34C94.8038 13.8733 95.2504 13.52 95.7838 13.28C96.3171 13.04 96.9171 12.92 97.5838 12.92Z" fill="#24282A"/>
<path d="M110.993 19.84C111.3 19.84 111.546 19.96 111.733 20.2C111.933 20.44 112.033 20.7533 112.033 21.14C112.033 21.6733 111.773 22.08 111.253 22.36C110.8 22.5866 110.26 22.78 109.633 22.94C109.02 23.0866 108.453 23.16 107.933 23.16C106.84 23.16 105.886 22.9533 105.073 22.54C104.26 22.1266 103.633 21.5333 103.193 20.76C102.753 19.9866 102.533 19.08 102.533 18.04C102.533 17.0533 102.74 16.1733 103.153 15.4C103.58 14.6133 104.166 14.0066 104.913 13.58C105.673 13.14 106.526 12.92 107.473 12.92C108.393 12.92 109.2 13.12 109.893 13.52C110.586 13.92 111.12 14.4866 111.493 15.22C111.88 15.9533 112.073 16.8133 112.073 17.8C112.073 18.1066 112 18.3466 111.853 18.52C111.72 18.68 111.52 18.76 111.253 18.76H105.973C106.066 19.4 106.273 19.86 106.593 20.14C106.913 20.42 107.386 20.56 108.013 20.56C108.346 20.56 108.653 20.5266 108.933 20.46C109.213 20.38 109.526 20.2733 109.873 20.14C110.073 20.06 110.266 19.9933 110.453 19.94C110.653 19.8733 110.833 19.84 110.993 19.84ZM107.573 15.32C107.106 15.32 106.733 15.4733 106.453 15.78C106.173 16.0733 106.006 16.5066 105.953 17.08H109.093C109.013 15.9066 108.506 15.32 107.573 15.32Z" fill="#24282A"/>
<path d="M117.576 23.16C116.683 23.16 115.93 23.0933 115.316 22.96C114.703 22.8266 114.163 22.6133 113.696 22.32C113.51 22.2266 113.363 22.0666 113.256 21.84C113.15 21.6133 113.096 21.36 113.096 21.08C113.096 20.72 113.19 20.4266 113.376 20.2C113.576 19.96 113.823 19.84 114.116 19.84C114.316 19.84 114.503 19.8666 114.676 19.92C114.85 19.96 115.063 20.0333 115.316 20.14C115.743 20.2866 116.116 20.4 116.436 20.48C116.77 20.56 117.19 20.6 117.696 20.6C118.056 20.6 118.336 20.5533 118.536 20.46C118.75 20.3533 118.856 20.2066 118.856 20.02C118.856 19.8733 118.803 19.76 118.696 19.68C118.603 19.6 118.416 19.5266 118.136 19.46C117.856 19.38 117.383 19.2733 116.716 19.14C115.53 18.9133 114.67 18.5733 114.136 18.12C113.616 17.6533 113.356 17 113.356 16.16C113.356 15.5466 113.543 14.9933 113.916 14.5C114.303 14.0066 114.83 13.62 115.496 13.34C116.163 13.06 116.91 12.92 117.736 12.92C118.336 12.92 118.916 12.9933 119.476 13.14C120.05 13.2866 120.556 13.4933 120.996 13.76C121.41 14 121.616 14.3866 121.616 14.92C121.616 15.2933 121.516 15.6066 121.316 15.86C121.116 16.1133 120.87 16.24 120.576 16.24C120.23 16.24 119.816 16.1266 119.336 15.9C119.016 15.7533 118.73 15.6466 118.476 15.58C118.236 15.5 117.95 15.46 117.616 15.46C117.283 15.46 117.023 15.5133 116.836 15.62C116.65 15.7133 116.556 15.8533 116.556 16.04C116.556 16.2533 116.683 16.42 116.936 16.54C117.203 16.66 117.723 16.7933 118.496 16.94C119.79 17.1666 120.703 17.5133 121.236 17.98C121.77 18.4333 122.036 19.0933 122.036 19.96C122.036 20.9333 121.63 21.7133 120.816 22.3C120.016 22.8733 118.936 23.16 117.576 23.16Z" fill="#24282A"/>
<path d="M127.381 23.16C126.488 23.16 125.734 23.0933 125.121 22.96C124.508 22.8266 123.968 22.6133 123.501 22.32C123.314 22.2266 123.168 22.0666 123.061 21.84C122.954 21.6133 122.901 21.36 122.901 21.08C122.901 20.72 122.994 20.4266 123.181 20.2C123.381 19.96 123.628 19.84 123.921 19.84C124.121 19.84 124.308 19.8666 124.481 19.92C124.654 19.96 124.868 20.0333 125.121 20.14C125.548 20.2866 125.921 20.4 126.241 20.48C126.574 20.56 126.994 20.6 127.501 20.6C127.861 20.6 128.141 20.5533 128.341 20.46C128.554 20.3533 128.661 20.2066 128.661 20.02C128.661 19.8733 128.608 19.76 128.501 19.68C128.408 19.6 128.221 19.5266 127.941 19.46C127.661 19.38 127.188 19.2733 126.521 19.14C125.334 18.9133 124.474 18.5733 123.941 18.12C123.421 17.6533 123.161 17 123.161 16.16C123.161 15.5466 123.348 14.9933 123.721 14.5C124.108 14.0066 124.634 13.62 125.301 13.34C125.968 13.06 126.714 12.92 127.541 12.92C128.141 12.92 128.721 12.9933 129.281 13.14C129.854 13.2866 130.361 13.4933 130.801 13.76C131.214 14 131.421 14.3866 131.421 14.92C131.421 15.2933 131.321 15.6066 131.121 15.86C130.921 16.1133 130.674 16.24 130.381 16.24C130.034 16.24 129.621 16.1266 129.141 15.9C128.821 15.7533 128.534 15.6466 128.281 15.58C128.041 15.5 127.754 15.46 127.421 15.46C127.088 15.46 126.828 15.5133 126.641 15.62C126.454 15.7133 126.361 15.8533 126.361 16.04C126.361 16.2533 126.488 16.42 126.741 16.54C127.008 16.66 127.528 16.7933 128.301 16.94C129.594 17.1666 130.508 17.5133 131.041 17.98C131.574 18.4333 131.841 19.0933 131.841 19.96C131.841 20.9333 131.434 21.7133 130.621 22.3C129.821 22.8733 128.741 23.16 127.381 23.16Z" fill="#24282A"/>
<path d="M14.2398 11.5885C14.7463 11.8108 15.1649 12.0499 15.4946 12.2982C15.42 12.3588 15.3476 12.4186 15.2777 12.4776C13.4492 11.8957 11.7631 11.8958 10.3305 11.8959L10.2833 11.8959C9.72719 11.8959 9.27639 12.3393 9.27639 12.8862C9.27639 13.4332 9.72719 13.8766 10.2833 13.8766C11.4387 13.8766 12.566 13.8807 13.7307 14.1202C13.4588 14.4934 13.2179 14.8829 13.005 15.2826C12.866 15.2746 12.7274 15.2649 12.5817 15.2547L12.5418 15.252C12.1701 15.226 11.7601 15.1985 11.2426 15.1985C10.6865 15.1985 10.2357 15.6419 10.2357 16.1889C10.2357 16.7359 10.6865 17.1793 11.2426 17.1793C11.6032 17.1793 11.9029 17.1946 12.1989 17.2141C11.903 18.1445 11.7169 19.0965 11.6129 20.0188L6.54699 10.3598C6.86526 10.3407 7.22169 10.3322 7.61027 10.3368C8.64165 10.3491 9.82972 10.4533 11.0026 10.662C12.1794 10.8713 13.3096 11.1803 14.2398 11.5885Z" fill="#24282A"/>
<path fill-rule="evenodd" clip-rule="evenodd" d="M4 0C1.79086 0 0 1.79086 0 4V28C0 30.2091 1.79086 32 4 32H28C30.2091 32 32 30.2091 32 28V4C32 1.79086 30.2091 0 28 0H4ZM25.5789 7.00178C25.2688 6.78926 24.9408 6.79655 24.8272 6.80183C24.6711 6.80908 24.5236 6.83975 24.4061 6.87003C24.1658 6.93196 23.8969 7.03335 23.6329 7.14725C23.0969 7.37853 22.4579 7.71517 21.87 8.07771C21.348 8.39966 20.8245 8.9264 20.473 9.30844C20.3134 9.48197 20.1738 9.64283 20.0663 9.77009C19.0868 10.0148 18.0589 10.5406 17.1683 11.1006C16.5771 10.5512 15.8353 10.1197 15.0603 9.77962C13.9387 9.28744 12.6418 8.94067 11.3611 8.71282C10.0765 8.48428 8.77665 8.36984 7.63472 8.3562C6.51316 8.34281 5.47068 8.42545 4.73302 8.63053C4.44216 8.71139 4.20362 8.9165 4.08326 9.18922C3.96291 9.46194 3.97348 9.77342 4.11206 10.0376L11.7832 24.6637C11.956 24.9931 12.3012 25.2 12.678 25.2H20.8938C21.4498 25.2 21.9006 24.7566 21.9006 24.2097C21.9006 23.6627 21.4498 23.2193 20.8938 23.2193H13.5735C13.4124 21.3465 13.5786 18.8237 14.5446 16.6977C14.9525 15.8001 15.4956 14.989 16.202 14.3241C16.5258 14.0193 17.0102 13.6207 17.5793 13.2191C18.6625 12.4544 19.8867 11.7964 20.8003 11.6392C21.048 11.5966 21.2705 11.4644 21.4241 11.2686L21.425 11.2675L21.4313 11.2595L21.4596 11.2242C21.485 11.1927 21.5231 11.146 21.5717 11.0878C21.6691 10.9711 21.8066 10.8109 21.9662 10.6375C22.3062 10.2679 22.6717 9.92122 22.9398 9.75589C22.9933 9.72287 23.0472 9.69017 23.1013 9.65787C22.9301 10.1643 22.7796 10.7288 22.7322 11.2637C22.6903 11.7359 22.7092 12.3996 23.0875 12.9418C23.409 14.3438 24.0147 15.6431 24.5702 16.8346L24.5922 16.8818C25.1073 17.9869 25.5779 19.0041 25.8652 20.0446L25.8421 20.0615C25.5254 20.2938 25.1115 20.5805 24.6976 20.8208C24.4115 20.9868 24.1688 21.1047 23.982 21.1762C23.7456 20.6454 23.3657 20.252 22.9879 19.9447C22.678 19.6926 22.2892 19.4408 21.9469 19.2192C21.8104 19.1308 21.6813 19.0472 21.5676 18.9703C20.6987 18.3828 20.0164 17.7665 19.8354 16.5206C19.7568 15.9792 19.2468 15.6029 18.6963 15.6803C18.1458 15.7576 17.7633 16.2593 17.8419 16.8008C18.1406 18.8576 19.377 19.8927 20.4268 20.6026C20.6242 20.7361 20.7982 20.8484 20.9559 20.9502C21.2458 21.1374 21.4806 21.2889 21.7046 21.4712C22.0098 21.7194 22.1318 21.9057 22.1789 22.0908C22.2865 22.5141 22.5565 22.8958 23.0064 23.0974C23.4004 23.274 23.8008 23.2515 24.0846 23.2015C24.6489 23.102 25.2477 22.8014 25.7211 22.5266C26.2215 22.2361 26.6995 21.9035 27.046 21.6493C27.221 21.521 27.366 21.41 27.4682 21.3304C27.5193 21.2905 27.5598 21.2584 27.5882 21.2358L27.6213 21.2093L27.6307 21.2017L27.6335 21.1994L27.6344 21.1987C27.9198 20.9664 28.0531 20.5982 27.9804 20.241C27.6763 18.7451 27.0324 17.364 26.4447 16.1035L26.4227 16.0563C25.8116 14.7453 25.2632 13.558 25.0092 12.3087C24.972 12.126 24.8833 11.9576 24.7536 11.8227C24.7457 11.7975 24.7156 11.6923 24.7383 11.4358C24.7707 11.0707 24.8945 10.6064 25.071 10.1143C25.2438 9.63258 25.4492 9.17258 25.6139 8.82931C25.6956 8.65884 25.766 8.51986 25.8154 8.4246C25.84 8.37702 25.8593 8.34051 25.8721 8.31661L25.8862 8.29044L25.8892 8.28484C26.1318 7.84186 25.9986 7.28948 25.5789 7.00178Z" fill="#24282A"/>
</svg>
