<svg width="133" height="32" viewBox="0 0 133 32" fill="none" xmlns="http://www.w3.org/2000/svg">
<path d="M53.8 8.79997C54.3067 8.79997 54.72 8.96664 55.04 9.29997C55.36 9.6333 55.52 10.0666 55.52 10.6V21.48C55.52 21.9866 55.3733 22.3866 55.08 22.68C54.7867 22.9733 54.4 23.12 53.92 23.12C53.4533 23.12 53.0667 22.9733 52.76 22.68C52.4667 22.3866 52.32 21.9866 52.32 21.48V15.6L50.04 19.8C49.8133 20.2266 49.5733 20.5333 49.32 20.72C49.0667 20.8933 48.7667 20.98 48.42 20.98C48.0733 20.98 47.7733 20.8933 47.52 20.72C47.2667 20.5333 47.0267 20.2266 46.8 19.8L44.54 15.72V21.48C44.54 21.9733 44.3867 22.3733 44.08 22.68C43.7867 22.9733 43.4 23.12 42.92 23.12C42.4533 23.12 42.0667 22.9733 41.76 22.68C41.4667 22.3866 41.32 21.9866 41.32 21.48V10.6C41.32 10.0666 41.48 9.6333 41.8 9.29997C42.1333 8.96664 42.5533 8.79997 43.06 8.79997C43.42 8.79997 43.7467 8.90664 44.04 9.11997C44.3333 9.31997 44.58 9.6133 44.78 9.99997L48.46 16.92L52.12 9.99997C52.5333 9.19997 53.0933 8.79997 53.8 8.79997Z" fill="white"/>
<path d="M64.4559 13.96C64.6026 13.6266 64.8026 13.38 65.0559 13.22C65.3093 13.06 65.5893 12.98 65.8959 12.98C66.3359 12.98 66.7293 13.1266 67.0759 13.42C67.4226 13.7133 67.5959 14.0666 67.5959 14.48C67.5959 14.7066 67.5426 14.9266 67.4359 15.14L62.1359 25.76C61.9759 26.0933 61.7626 26.34 61.4959 26.5C61.2426 26.66 60.9626 26.74 60.6559 26.74C60.2159 26.74 59.8226 26.5933 59.4759 26.3C59.1426 26.02 58.9759 25.6733 58.9759 25.26C58.9759 25.0333 59.0359 24.8 59.1559 24.56L60.4559 21.94L57.0559 15.14C56.9493 14.9 56.8959 14.6866 56.8959 14.5C56.8959 14.0733 57.0826 13.7133 57.4559 13.42C57.8293 13.1133 58.2493 12.96 58.7159 12.96C59.0359 12.96 59.3293 13.0466 59.5959 13.22C59.8759 13.38 60.0893 13.6266 60.2359 13.96L62.3559 18.56L64.4559 13.96Z" fill="white"/>
<path d="M69.9433 19.02C68.8366 19.02 68.2833 18.5533 68.2833 17.62C68.2833 16.7 68.8366 16.24 69.9433 16.24H73.7033C74.2633 16.24 74.6766 16.36 74.9433 16.6C75.2233 16.84 75.3633 17.18 75.3633 17.62C75.3633 18.06 75.2233 18.4066 74.9433 18.66C74.6766 18.9 74.2633 19.02 73.7033 19.02H69.9433Z" fill="white"/>
<path d="M84.0147 23.18C82.6014 23.18 81.3614 22.8866 80.2947 22.3C79.2414 21.7133 78.4214 20.8733 77.8347 19.78C77.2614 18.6866 76.9747 17.4066 76.9747 15.94C76.9747 14.4866 77.2614 13.2133 77.8347 12.12C78.4214 11.0266 79.2414 10.1866 80.2947 9.59997C81.3614 9.0133 82.6014 8.71997 84.0147 8.71997C85.708 8.71997 87.1947 9.16664 88.4747 10.06C88.7014 10.22 88.8614 10.3933 88.9547 10.58C89.0614 10.7666 89.1147 11.0066 89.1147 11.3C89.1147 11.7133 88.9947 12.0666 88.7547 12.36C88.528 12.64 88.248 12.78 87.9147 12.78C87.7147 12.78 87.5347 12.7533 87.3747 12.7C87.2147 12.6333 87.028 12.5333 86.8147 12.4C86.348 12.12 85.908 11.92 85.4947 11.8C85.0814 11.68 84.6547 11.62 84.2147 11.62C83.028 11.62 82.1414 11.98 81.5547 12.7C80.9814 13.4066 80.6947 14.4866 80.6947 15.94C80.6947 17.4066 80.9814 18.5 81.5547 19.22C82.1414 19.9266 83.028 20.28 84.2147 20.28C84.6147 20.28 85.0014 20.22 85.3747 20.1C85.748 19.9666 86.228 19.7666 86.8147 19.5C87.0947 19.3533 87.3014 19.2533 87.4347 19.2C87.568 19.1466 87.728 19.12 87.9147 19.12C88.248 19.12 88.528 19.2666 88.7547 19.56C88.9947 19.84 89.1147 20.1866 89.1147 20.6C89.1147 20.88 89.0614 21.12 88.9547 21.32C88.8614 21.5066 88.7014 21.68 88.4747 21.84C87.1947 22.7333 85.708 23.18 84.0147 23.18Z" fill="white"/>
<path d="M97.3494 12.92C98.4961 12.92 99.3494 13.2733 99.9094 13.98C100.469 14.6733 100.749 15.7333 100.749 17.16V21.48C100.749 21.9866 100.589 22.3866 100.269 22.68C99.9494 22.9733 99.516 23.12 98.9694 23.12C98.4227 23.12 97.9894 22.9733 97.6694 22.68C97.3494 22.3866 97.1894 21.9866 97.1894 21.48V17.08C97.1894 16.12 96.776 15.64 95.9494 15.64C95.416 15.64 94.9894 15.8133 94.6694 16.16C94.3627 16.4933 94.2094 16.9466 94.2094 17.52V21.48C94.2094 21.9866 94.0494 22.3866 93.7294 22.68C93.4094 22.9733 92.976 23.12 92.4294 23.12C91.8827 23.12 91.4494 22.9733 91.1294 22.68C90.8094 22.3866 90.6494 21.9866 90.6494 21.48V10.4C90.6494 9.9333 90.8161 9.5533 91.1494 9.25997C91.4827 8.9533 91.9227 8.79997 92.4694 8.79997C92.9894 8.79997 93.4094 8.93997 93.7294 9.21997C94.0494 9.49997 94.2094 9.8733 94.2094 10.34V14.34C94.5694 13.8733 95.016 13.52 95.5494 13.28C96.0827 13.04 96.6827 12.92 97.3494 12.92Z" fill="white"/>
<path d="M110.759 19.84C111.065 19.84 111.312 19.96 111.499 20.2C111.699 20.44 111.799 20.7533 111.799 21.14C111.799 21.6733 111.539 22.08 111.019 22.36C110.565 22.5866 110.025 22.78 109.399 22.94C108.785 23.0866 108.219 23.16 107.699 23.16C106.605 23.16 105.652 22.9533 104.839 22.54C104.025 22.1266 103.399 21.5333 102.959 20.76C102.519 19.9866 102.299 19.08 102.299 18.04C102.299 17.0533 102.505 16.1733 102.919 15.4C103.345 14.6133 103.932 14.0066 104.679 13.58C105.439 13.14 106.292 12.92 107.239 12.92C108.159 12.92 108.965 13.12 109.659 13.52C110.352 13.92 110.885 14.4866 111.259 15.22C111.645 15.9533 111.839 16.8133 111.839 17.8C111.839 18.1066 111.765 18.3466 111.619 18.52C111.485 18.68 111.285 18.76 111.019 18.76H105.739C105.832 19.4 106.039 19.86 106.359 20.14C106.679 20.42 107.152 20.56 107.779 20.56C108.112 20.56 108.419 20.5266 108.699 20.46C108.979 20.38 109.292 20.2733 109.639 20.14C109.839 20.06 110.032 19.9933 110.219 19.94C110.419 19.8733 110.599 19.84 110.759 19.84ZM107.339 15.32C106.872 15.32 106.499 15.4733 106.219 15.78C105.939 16.0733 105.772 16.5066 105.719 17.08H108.859C108.779 15.9066 108.272 15.32 107.339 15.32Z" fill="white"/>
<path d="M117.342 23.16C116.449 23.16 115.695 23.0933 115.082 22.96C114.469 22.8266 113.929 22.6133 113.462 22.32C113.275 22.2266 113.129 22.0666 113.022 21.84C112.915 21.6133 112.862 21.36 112.862 21.08C112.862 20.72 112.955 20.4266 113.142 20.2C113.342 19.96 113.589 19.84 113.882 19.84C114.082 19.84 114.269 19.8666 114.442 19.92C114.615 19.96 114.829 20.0333 115.082 20.14C115.509 20.2866 115.882 20.4 116.202 20.48C116.535 20.56 116.955 20.6 117.462 20.6C117.822 20.6 118.102 20.5533 118.302 20.46C118.515 20.3533 118.622 20.2066 118.622 20.02C118.622 19.8733 118.569 19.76 118.462 19.68C118.369 19.6 118.182 19.5266 117.902 19.46C117.622 19.38 117.149 19.2733 116.482 19.14C115.295 18.9133 114.435 18.5733 113.902 18.12C113.382 17.6533 113.122 17 113.122 16.16C113.122 15.5466 113.309 14.9933 113.682 14.5C114.069 14.0066 114.595 13.62 115.262 13.34C115.929 13.06 116.675 12.92 117.502 12.92C118.102 12.92 118.682 12.9933 119.242 13.14C119.815 13.2866 120.322 13.4933 120.762 13.76C121.175 14 121.382 14.3866 121.382 14.92C121.382 15.2933 121.282 15.6066 121.082 15.86C120.882 16.1133 120.635 16.24 120.342 16.24C119.995 16.24 119.582 16.1266 119.102 15.9C118.782 15.7533 118.495 15.6466 118.242 15.58C118.002 15.5 117.715 15.46 117.382 15.46C117.049 15.46 116.789 15.5133 116.602 15.62C116.415 15.7133 116.322 15.8533 116.322 16.04C116.322 16.2533 116.449 16.42 116.702 16.54C116.969 16.66 117.489 16.7933 118.262 16.94C119.555 17.1666 120.469 17.5133 121.002 17.98C121.535 18.4333 121.802 19.0933 121.802 19.96C121.802 20.9333 121.395 21.7133 120.582 22.3C119.782 22.8733 118.702 23.16 117.342 23.16Z" fill="white"/>
<path d="M127.147 23.16C126.253 23.16 125.5 23.0933 124.887 22.96C124.273 22.8266 123.733 22.6133 123.267 22.32C123.08 22.2266 122.933 22.0666 122.827 21.84C122.72 21.6133 122.667 21.36 122.667 21.08C122.667 20.72 122.76 20.4266 122.947 20.2C123.147 19.96 123.393 19.84 123.687 19.84C123.887 19.84 124.073 19.8666 124.247 19.92C124.42 19.96 124.633 20.0333 124.887 20.14C125.313 20.2866 125.687 20.4 126.007 20.48C126.34 20.56 126.76 20.6 127.267 20.6C127.627 20.6 127.907 20.5533 128.107 20.46C128.32 20.3533 128.427 20.2066 128.427 20.02C128.427 19.8733 128.373 19.76 128.267 19.68C128.173 19.6 127.987 19.5266 127.707 19.46C127.427 19.38 126.953 19.2733 126.287 19.14C125.1 18.9133 124.24 18.5733 123.707 18.12C123.187 17.6533 122.927 17 122.927 16.16C122.927 15.5466 123.113 14.9933 123.487 14.5C123.873 14.0066 124.4 13.62 125.067 13.34C125.733 13.06 126.48 12.92 127.307 12.92C127.907 12.92 128.487 12.9933 129.047 13.14C129.62 13.2866 130.127 13.4933 130.567 13.76C130.98 14 131.187 14.3866 131.187 14.92C131.187 15.2933 131.087 15.6066 130.887 15.86C130.687 16.1133 130.44 16.24 130.147 16.24C129.8 16.24 129.387 16.1266 128.907 15.9C128.587 15.7533 128.3 15.6466 128.047 15.58C127.807 15.5 127.52 15.46 127.187 15.46C126.853 15.46 126.593 15.5133 126.407 15.62C126.22 15.7133 126.127 15.8533 126.127 16.04C126.127 16.2533 126.253 16.42 126.507 16.54C126.773 16.66 127.293 16.7933 128.067 16.94C129.36 17.1666 130.273 17.5133 130.807 17.98C131.34 18.4333 131.607 19.0933 131.607 19.96C131.607 20.9333 131.2 21.7133 130.387 22.3C129.587 22.8733 128.507 23.16 127.147 23.16Z" fill="white"/>
<path d="M14.2398 11.5885C14.7463 11.8108 15.1649 12.0499 15.4946 12.2982C15.42 12.3588 15.3476 12.4186 15.2777 12.4776C13.4492 11.8957 11.7631 11.8958 10.3305 11.8959L10.2833 11.8959C9.72719 11.8959 9.27639 12.3393 9.27639 12.8862C9.27639 13.4332 9.72719 13.8766 10.2833 13.8766C11.4387 13.8766 12.566 13.8807 13.7307 14.1202C13.4588 14.4934 13.2179 14.8829 13.005 15.2826C12.866 15.2746 12.7274 15.2649 12.5817 15.2547L12.5418 15.252C12.1701 15.226 11.7601 15.1985 11.2426 15.1985C10.6865 15.1985 10.2357 15.6419 10.2357 16.1889C10.2357 16.7359 10.6865 17.1793 11.2426 17.1793C11.6032 17.1793 11.9029 17.1946 12.1989 17.2141C11.903 18.1445 11.7169 19.0965 11.6129 20.0188L6.54699 10.3598C6.86526 10.3407 7.22169 10.3322 7.61027 10.3368C8.64165 10.3491 9.82972 10.4533 11.0026 10.662C12.1794 10.8713 13.3096 11.1803 14.2398 11.5885Z" fill="white"/>
<path fill-rule="evenodd" clip-rule="evenodd" d="M4 0C1.79086 0 0 1.79086 0 4V28C0 30.2091 1.79086 32 4 32H28C30.2091 32 32 30.2091 32 28V4C32 1.79086 30.2091 0 28 0H4ZM25.5789 7.00178C25.2688 6.78926 24.9408 6.79655 24.8272 6.80183C24.6711 6.80908 24.5236 6.83975 24.4061 6.87003C24.1658 6.93196 23.8969 7.03335 23.6329 7.14725C23.0969 7.37853 22.4579 7.71517 21.87 8.07771C21.348 8.39966 20.8245 8.9264 20.473 9.30844C20.3134 9.48197 20.1738 9.64283 20.0663 9.77009C19.0868 10.0148 18.0589 10.5406 17.1683 11.1006C16.5771 10.5512 15.8353 10.1197 15.0603 9.77962C13.9387 9.28744 12.6418 8.94067 11.3611 8.71282C10.0765 8.48428 8.77665 8.36984 7.63472 8.3562C6.51316 8.34281 5.47068 8.42545 4.73302 8.63053C4.44216 8.71139 4.20362 8.9165 4.08326 9.18922C3.96291 9.46194 3.97348 9.77342 4.11206 10.0376L11.7832 24.6637C11.956 24.9931 12.3012 25.2 12.678 25.2H20.8938C21.4498 25.2 21.9006 24.7566 21.9006 24.2097C21.9006 23.6627 21.4498 23.2193 20.8938 23.2193H13.5735C13.4124 21.3465 13.5786 18.8237 14.5446 16.6977C14.9525 15.8001 15.4956 14.989 16.202 14.3241C16.5258 14.0193 17.0102 13.6207 17.5793 13.2191C18.6625 12.4544 19.8867 11.7964 20.8003 11.6392C21.048 11.5966 21.2705 11.4644 21.4241 11.2686L21.425 11.2675L21.4313 11.2595L21.4596 11.2242C21.485 11.1927 21.5231 11.146 21.5717 11.0878C21.6691 10.9711 21.8066 10.8109 21.9662 10.6375C22.3062 10.2679 22.6717 9.92122 22.9398 9.75589C22.9933 9.72287 23.0472 9.69017 23.1013 9.65787C22.9301 10.1643 22.7796 10.7288 22.7322 11.2637C22.6903 11.7359 22.7092 12.3996 23.0875 12.9418C23.409 14.3438 24.0147 15.6431 24.5702 16.8346L24.5922 16.8818C25.1073 17.9869 25.5779 19.0041 25.8652 20.0446L25.8421 20.0615C25.5254 20.2938 25.1115 20.5805 24.6976 20.8208C24.4115 20.9868 24.1688 21.1047 23.982 21.1762C23.7456 20.6454 23.3657 20.252 22.9879 19.9447C22.678 19.6926 22.2892 19.4408 21.9469 19.2192C21.8104 19.1308 21.6813 19.0472 21.5676 18.9703C20.6987 18.3828 20.0164 17.7665 19.8354 16.5206C19.7568 15.9792 19.2468 15.6029 18.6963 15.6803C18.1458 15.7576 17.7633 16.2593 17.8419 16.8008C18.1406 18.8576 19.377 19.8927 20.4268 20.6026C20.6242 20.7361 20.7982 20.8484 20.9559 20.9502C21.2458 21.1374 21.4806 21.2889 21.7046 21.4712C22.0098 21.7194 22.1318 21.9057 22.1789 22.0908C22.2865 22.5141 22.5565 22.8958 23.0064 23.0974C23.4004 23.274 23.8008 23.2515 24.0846 23.2015C24.6489 23.102 25.2477 22.8014 25.7211 22.5266C26.2215 22.2361 26.6995 21.9035 27.046 21.6493C27.221 21.521 27.366 21.41 27.4682 21.3304C27.5193 21.2905 27.5598 21.2584 27.5882 21.2358L27.6213 21.2093L27.6307 21.2017L27.6335 21.1994L27.6344 21.1987C27.9198 20.9664 28.0531 20.5982 27.9804 20.241C27.6763 18.7451 27.0324 17.364 26.4447 16.1035L26.4227 16.0563C25.8116 14.7453 25.2632 13.558 25.0092 12.3087C24.972 12.126 24.8833 11.9576 24.7536 11.8227C24.7457 11.7975 24.7156 11.6923 24.7383 11.4358C24.7707 11.0707 24.8945 10.6064 25.071 10.1143C25.2438 9.63258 25.4492 9.17258 25.6139 8.82931C25.6956 8.65884 25.766 8.51986 25.8154 8.4246C25.84 8.37702 25.8593 8.34051 25.8721 8.31661L25.8862 8.29044L25.8892 8.28484C26.1318 7.84186 25.9986 7.28948 25.5789 7.00178Z" fill="white"/>
</svg>
