<svg width="32" height="32" viewBox="0 0 32 32" fill="none" xmlns="http://www.w3.org/2000/svg">
<rect x="1.5" y="1.5" width="29" height="29" rx="2.5" fill="white" stroke="white" stroke-width="3"/>
<path d="M12.4962 24L4.5 8.5C7 7.79339 15 8.5 16.9933 11.5M12.4962 24H21.0602M12.4962 24C12.1712 21.8623 12.208 18.4653 13.4837 15.611M25 7C25 7 23.459 7.27699 22.6353 7.79339C21.8117 8.30978 20.782 9.64463 20.782 9.64463C18.9368 9.96725 16.5204 11.7351 15.4438 12.7655M10 12C11.6731 12 13.4837 12 15.4438 12.7655M15.4438 12.7655C14.5928 13.5801 13.954 14.5586 13.4837 15.611M11 15.5C12 15.5 12.5851 15.607 13.4837 15.611" stroke="#71AB4F" stroke-width="2" stroke-linecap="round" stroke-linejoin="round"/>
<path d="M19 16C19.5 19.5 23 19.5 23.5 21.5C23.875 23 27.5 20 27.5 20C26.9142 17.0711 24.9886 14.5227 24.4028 11.5938C24.0598 11.2604 24.1768 9.4 25 7" stroke="#71AB4F" stroke-width="2" stroke-linecap="round" stroke-linejoin="round"/>
</svg>
