<svg width="16" height="23" viewBox="0 0 16 23" fill="none" xmlns="http://www.w3.org/2000/svg">
<path d="M8.72199 10.1504L11.9138 7.09153C12.557 6.47511 12.1015 5.42113 11.1918 5.42113L4.80817 5.42113C3.89852 5.42113 3.44296 6.47511 4.08618 7.09153L7.27801 10.1504C7.67675 10.5325 8.32325 10.5325 8.72199 10.1504Z" fill="#24282A"/>
<path d="M6.49183 8.78192C6.4547 8.18562 6.92387 7.66699 7.52132 7.66699H8.47867C9.07613 7.66699 9.5453 8.18562 9.50817 8.78192C9.39171 10.6521 9.32044 14.4529 10.4 16.867C11.0769 18.3806 12.4193 19.8722 13.62 21.0053C14.3267 21.6722 13.8633 23.0003 12.8916 23.0003H3.10836C2.13668 23.0003 1.67328 21.6722 2.37997 21.0053C3.58072 19.8722 4.92308 18.3806 5.6 16.867C6.67956 14.4529 6.60829 10.6521 6.49183 8.78192Z" fill="#24282A"/>
<rect x="4.79993" y="10.7334" width="6.4" height="1.53333" rx="0.766664" fill="#24282A"/>
<ellipse cx="8.00015" cy="3.06653" rx="1.6" ry="1.53333" fill="#24282A"/>
</svg>
