<svg width="19" height="19" viewBox="0 0 19 19" fill="none" xmlns="http://www.w3.org/2000/svg">
<path d="M2.21619 9.74474C2.14496 9.21818 2.26239 8.6834 2.54767 8.23512C2.83295 7.78684 3.26768 7.45399 3.77486 7.29552C4.28204 7.13705 4.82894 7.16319 5.31869 7.36931C5.80844 7.57543 6.20944 7.94823 6.45066 8.42168C7.13362 9.75719 5.47184 11.4494 5.47184 11.4494" stroke="#24282A" stroke-width="2" stroke-linecap="round" stroke-linejoin="round"/>
<path d="M8.15278 3.50141C8.35438 3.00978 8.72346 2.60536 9.19466 2.35978C9.66587 2.1142 10.2088 2.0433 10.7272 2.15966C11.2457 2.27601 11.7063 2.57209 12.0273 2.99548C12.3484 3.41886 12.5093 3.94221 12.4815 4.47284C12.4052 5.9709 10.1199 6.60549 10.1199 6.60549" stroke="#24282A" stroke-width="2" stroke-linecap="round" stroke-linejoin="round"/>
<path d="M13.5175 9.09587C13.9891 8.85119 14.5322 8.78134 15.0504 8.89869C15.5687 9.01604 16.0286 9.31301 16.3489 9.737C16.6692 10.161 16.829 10.6847 16.8002 11.2152C16.7714 11.7458 16.5557 12.2491 16.1914 12.6359C15.1645 13.7293 13.0109 12.7357 13.0109 12.7357" stroke="#24282A" stroke-width="2" stroke-linecap="round" stroke-linejoin="round"/>
<path d="M6.89108 14.0928L6.89732 14.0896" stroke="#24282A" stroke-width="2" stroke-linecap="round" stroke-linejoin="round"/>
<path d="M10.0273 9.60449L10.0343 9.60485" stroke="#24282A" stroke-width="2" stroke-linecap="round" stroke-linejoin="round"/>
<path d="M11.0007 14.9629L11.0058 14.9677" stroke="#24282A" stroke-width="2" stroke-linecap="round" stroke-linejoin="round"/>
</svg>
