<svg width="16" height="16" viewBox="0 0 16 16" fill="none" xmlns="http://www.w3.org/2000/svg">
<g clip-path="url(#clip0)">
<path d="M0.666016 2.66666V6.66666H4.66602" stroke="#24282A" stroke-width="2" stroke-linecap="round" stroke-linejoin="round"/>
<path d="M15.334 13.3333V9.33334H11.334" stroke="#24282A" stroke-width="2" stroke-linecap="round" stroke-linejoin="round"/>
<path d="M13.6593 5.99998C13.3212 5.0445 12.7466 4.19025 11.989 3.51692C11.2315 2.8436 10.3157 2.37316 9.32716 2.14948C8.33861 1.92581 7.30951 1.95621 6.33589 2.23783C5.36226 2.51945 4.47585 3.04312 3.75935 3.75998L0.666016 6.66665M15.3327 9.33331L12.2393 12.24C11.5229 12.9568 10.6364 13.4805 9.66281 13.7621C8.68918 14.0438 7.66009 14.0741 6.67154 13.8505C5.68299 13.6268 4.76722 13.1564 4.00966 12.483C3.2521 11.8097 2.67746 10.9555 2.33935 9.99998" stroke="#24282A" stroke-width="2" stroke-linecap="round" stroke-linejoin="round"/>
</g>
<defs>
<clipPath id="clip0">
<rect width="16" height="16" fill="white"/>
</clipPath>
</defs>
</svg>
