<svg width="24" height="24" viewBox="0 0 24 24" fill="none" xmlns="http://www.w3.org/2000/svg">
<g clip-path="url(#clip0)">
<path d="M5.54614 9.51943C5.38118 9.41665 5.16413 9.46701 5.06126 9.63197C4.25518 10.9254 3.8291 12.4178 3.8291 13.9479C3.8291 18.4536 7.49482 22.1194 12.0006 22.1194C16.5064 22.1194 20.1721 18.4536 20.1721 13.9479C20.1721 9.44209 16.5064 5.77637 12.0006 5.77637C9.74269 5.77637 7.56391 6.72431 6.02295 8.3772C5.89037 8.51939 5.89821 8.74208 6.04041 8.87466C6.18256 9.00724 6.40529 8.99944 6.53787 8.8572C7.94615 7.34665 9.93726 6.48032 12.0006 6.48032C16.0002 6.48032 19.2752 9.64108 19.4596 13.5959H18.5463C18.3519 13.5959 18.1944 13.7535 18.1944 13.9479C18.1944 14.1423 18.3519 14.2998 18.5463 14.2998H19.4596C19.3759 16.094 18.6564 17.7247 17.5215 18.971L16.878 18.3275C16.7405 18.1901 16.5177 18.1901 16.3802 18.3275C16.2428 18.465 16.2428 18.6879 16.3802 18.8253L17.0237 19.4687C15.7774 20.6037 14.1467 21.3232 12.3525 21.4069V20.4936C12.3525 20.2992 12.195 20.1416 12.0006 20.1416C11.8062 20.1416 11.6486 20.2992 11.6486 20.4936V21.4069C7.69376 21.2224 4.53301 17.9475 4.53301 13.9479C4.53301 12.5496 4.92225 11.1859 5.65868 10.0043C5.7615 9.83936 5.7111 9.62226 5.54614 9.51943Z" fill="black"/>
<path d="M12.0004 8.77129C9.26393 8.77129 7.01654 10.9053 6.83498 13.5965C6.82189 13.7905 6.66556 13.9485 6.47116 13.9486C6.27675 13.9486 6.11804 13.7906 6.12956 13.5965C6.31225 10.5169 8.87561 8.06738 12.0003 8.06738C13.6391 8.06738 15.1838 8.74754 16.287 9.92216L16.2933 9.73237C16.2998 9.53803 16.4646 9.38622 16.6568 9.39232C16.8511 9.39884 17.0033 9.56155 16.9969 9.75584L16.9587 10.9007C16.9555 10.9956 16.9142 11.0851 16.8441 11.1491C16.7791 11.2084 16.6944 11.241 16.6069 11.241C16.6001 11.241 16.5932 11.2408 16.5863 11.2404L15.4427 11.1734C15.2486 11.162 15.1005 10.9955 15.1119 10.8014C15.1232 10.6073 15.289 10.4589 15.4838 10.4706L15.8546 10.4923C14.8788 9.40424 13.4834 8.77129 12.0004 8.77129Z" fill="#24282A"/>
<path d="M14.3528 11.7198C14.2192 11.5787 13.9963 11.5726 13.8552 11.7063L13.1082 12.4137C12.7964 12.1879 12.4137 12.0542 12.0001 12.0542C10.9559 12.0542 10.1064 12.9037 10.1064 13.9478C10.1064 14.992 10.9559 15.8415 12.0001 15.8415C13.0442 15.8415 13.8937 14.992 13.8937 13.9478C13.8937 13.5711 13.7827 13.2201 13.5923 12.9248L14.3393 12.2175C14.4804 12.0838 14.4865 11.861 14.3528 11.7198ZM12.0001 15.1375C11.3441 15.1375 10.8104 14.6038 10.8104 13.9478C10.8104 13.2919 11.3441 12.7582 12.0001 12.7582C12.6561 12.7582 13.1898 13.2919 13.1898 13.9478C13.1898 14.6038 12.6561 15.1375 12.0001 15.1375Z" fill="black"/>
<path d="M20.3793 6.66917C20.5403 6.78142 20.7297 6.84187 20.9272 6.84187C20.9472 6.84187 20.9674 6.84126 20.9876 6.83999C21.2445 6.82418 21.4798 6.70929 21.6502 6.5165L21.8919 6.24309C22.0623 6.0503 22.1474 5.80269 22.1316 5.54584C22.1158 5.28899 22.0009 5.05369 21.8081 4.88324L21.7383 4.82162C21.5927 4.69284 21.3702 4.70664 21.2415 4.85231C21.1128 4.99798 21.1265 5.22038 21.2721 5.34911L21.3419 5.41068C21.3937 5.45658 21.4247 5.51994 21.4289 5.58907C21.4332 5.65824 21.4103 5.72488 21.3644 5.77679L21.1227 6.0502C21.0768 6.10211 21.0135 6.13304 20.9443 6.13726C20.875 6.14167 20.8084 6.11863 20.7566 6.07273L18.7422 4.29205C18.6351 4.19735 18.6249 4.03309 18.7197 3.92595L18.9614 3.65249C19.0073 3.60058 19.0706 3.56966 19.1398 3.56543C19.2091 3.56112 19.2756 3.58406 19.3275 3.62996L20.1461 4.35363C20.2917 4.48231 20.5142 4.4687 20.6429 4.32303C20.7717 4.1774 20.758 3.95495 20.6124 3.82622L19.7938 3.10256C19.601 2.93211 19.3535 2.84726 19.0966 2.86279C18.8397 2.87861 18.6044 2.99349 18.434 3.18628L18.1923 3.45975C17.8658 3.82923 17.8752 4.38113 18.1966 4.73982L17.4981 5.53008C16.2798 4.73095 14.9064 4.21007 13.4569 4.0009V2.94999C13.9892 2.9261 14.4153 2.48683 14.4153 1.94873V1.00351C14.4153 0.450155 13.965 0 13.4117 0H10.589C10.0356 0 9.58547 0.450155 9.58547 1.00351V1.94873C9.58547 2.48683 10.0115 2.9261 10.5438 2.94999V4.0009C9.0943 4.21002 7.72093 4.73095 6.50267 5.53008L5.80406 4.73982C6.12544 4.38108 6.13497 3.82923 5.80833 3.45975L5.56664 3.18638C5.2149 2.78836 4.60485 2.75086 4.20684 3.10265L2.19254 4.88333C1.99975 5.05373 1.88487 5.28909 1.86905 5.54589C1.85324 5.80269 1.93842 6.05034 2.10877 6.24309L2.35046 6.5165C2.52087 6.70929 2.75622 6.82418 3.01303 6.83999C3.03325 6.84126 3.05343 6.84187 3.07352 6.84187C3.27095 6.84187 3.46036 6.78142 3.62134 6.66921L4.32168 7.46144C2.78593 9.27328 1.94851 11.5463 1.94851 13.9483C1.94851 16.6332 2.99407 19.1575 4.89258 21.056C6.7911 22.9545 9.31534 24 12.0003 24C13.1616 24 14.3009 23.8031 15.3867 23.4145C15.5697 23.349 15.6651 23.1476 15.5995 22.9646C15.534 22.7815 15.3326 22.6862 15.1496 22.7517C14.1401 23.1129 13.0805 23.2961 12.0003 23.2961C6.84587 23.2961 2.65241 19.1027 2.65241 13.9482C2.65241 8.79379 6.84596 4.60039 12.0004 4.60039C17.1548 4.60039 21.3482 8.79379 21.3482 13.9482C21.3482 17.3722 19.479 20.5188 16.47 22.1601C16.2994 22.2532 16.2365 22.467 16.3296 22.6376C16.4227 22.8083 16.6364 22.8712 16.8072 22.7781C20.0425 21.0133 22.0522 17.6299 22.0522 13.9482C22.0522 11.5463 21.2148 9.27323 19.679 7.4614L20.3793 6.66917ZM4.89268 6.84051C4.86072 6.87247 4.8296 6.90509 4.79811 6.93742L4.15357 6.20836L5.28135 5.21137L5.92467 5.93912C5.56397 6.21394 5.21889 6.51434 4.89268 6.84051ZM11.2477 3.92403V2.95229H12.753V3.92403C12.5038 3.90572 12.2528 3.89643 12.0004 3.89643C11.7479 3.89643 11.4969 3.90568 11.2477 3.92403ZM18.076 5.93912L18.7194 5.21137L19.8472 6.20836L19.2027 6.93747C19.1712 6.90513 19.1401 6.87256 19.1081 6.84056C18.7819 6.51434 18.4368 6.21394 18.076 5.93912Z" fill="#BCD3F3"/>
<ellipse cx="12" cy="14" rx="10" ry="10" fill="#4B79D2"/>
<rect x="19.4395" y="3.0957" width="3.4934" height="1.58484" transform="rotate(43.3423 19.4395 3.0957)" fill="#BCD3F3"/>
<ellipse cx="12" cy="14" rx="8" ry="8" fill="white"/>
<path d="M5.54614 9.51943C5.38118 9.41665 5.16413 9.46701 5.06126 9.63197C4.25518 10.9254 3.8291 12.4178 3.8291 13.9479C3.8291 18.4536 7.49482 22.1194 12.0006 22.1194C16.5064 22.1194 20.1721 18.4536 20.1721 13.9479C20.1721 9.44209 16.5064 5.77637 12.0006 5.77637C9.74269 5.77637 7.56391 6.72431 6.02295 8.3772C5.89037 8.51939 5.89821 8.74208 6.04041 8.87466C6.18256 9.00723 6.40529 8.99944 6.53787 8.8572C7.94615 7.34665 9.93726 6.48032 12.0006 6.48032C16.0002 6.48032 19.2752 9.64107 19.4596 13.5959H18.5463C18.3519 13.5959 18.1944 13.7535 18.1944 13.9479C18.1944 14.1423 18.3519 14.2998 18.5463 14.2998H19.4596C19.3759 16.094 18.6564 17.7247 17.5215 18.971L16.878 18.3275C16.7405 18.1901 16.5177 18.1901 16.3802 18.3275C16.2428 18.465 16.2428 18.6879 16.3802 18.8253L17.0237 19.4687C15.7774 20.6037 14.1467 21.3232 12.3525 21.4069V20.4936C12.3525 20.2992 12.195 20.1416 12.0006 20.1416C11.8062 20.1416 11.6486 20.2992 11.6486 20.4936V21.4069C7.69376 21.2224 4.53301 17.9475 4.53301 13.9479C4.53301 12.5496 4.92225 11.1859 5.65868 10.0043C5.7615 9.83935 5.7111 9.62226 5.54614 9.51943Z" fill="black"/>
<path d="M19.3805 16.5559C19.5664 16.6125 19.7631 16.5077 19.8197 16.3217C20.2636 14.8637 20.2889 13.3119 19.8929 11.834C18.7267 7.48174 14.2371 4.88969 9.88487 6.05587C5.53263 7.22205 2.94057 11.7116 4.10675 16.0639C5.27293 20.4161 9.76251 23.0082 14.1148 21.842C16.2957 21.2576 18.1549 19.778 19.2156 17.7827C19.3068 17.611 19.2416 17.3979 19.07 17.3067C18.8983 17.2154 18.6852 17.2806 18.594 17.4523C17.6246 19.2758 15.9256 20.628 13.9326 21.162C10.0692 22.1972 6.0878 19.9918 4.88607 16.2194L5.76821 15.9831C5.95602 15.9328 6.06741 15.7398 6.01709 15.552C5.96678 15.3642 5.77382 15.2528 5.58601 15.3031L4.70387 15.5395C4.32033 13.7848 4.59325 12.0235 5.36697 10.5259L6.15505 10.9809C6.32344 11.078 6.53867 11.0204 6.63587 10.852C6.73307 10.6837 6.67539 10.4684 6.50705 10.3712L5.71897 9.91624C6.62904 8.49739 8.01799 7.38036 9.72934 6.83517L9.96571 7.71731C10.016 7.90508 10.209 8.01652 10.3968 7.9662C10.5846 7.91589 10.696 7.72288 10.6457 7.53512L10.4093 6.65297C14.2771 5.80754 18.1778 8.15287 19.213 12.0162C19.5749 13.3668 19.5518 14.7847 19.1463 16.1167C19.0897 16.3026 19.1946 16.4993 19.3805 16.5559Z" fill="black"/>
<path d="M16.3528 9.71983C16.2192 9.57867 15.9963 9.57261 15.8552 9.70627L13.1082 12.4137C12.7964 12.1879 12.4137 12.0542 12.0001 12.0542C10.9559 12.0542 10.1064 12.9037 10.1064 13.9479C10.1064 14.992 10.9559 15.8415 12.0001 15.8415C13.0442 15.8415 13.8937 14.992 13.8937 13.9479C13.8937 13.5711 13.7827 13.2201 13.5923 12.9248L16.3393 10.2175C16.4804 10.0838 16.4865 9.861 16.3528 9.71983ZM12.0001 15.1375C11.3441 15.1375 10.8104 14.6038 10.8104 13.9479C10.8104 13.2919 11.3441 12.7582 12.0001 12.7582C12.6561 12.7582 13.1898 13.2919 13.1898 13.9479C13.1898 14.6038 12.6561 15.1375 12.0001 15.1375Z" fill="black"/>
<path d="M20.3793 6.66917C20.5403 6.78142 20.7297 6.84187 20.9272 6.84187C20.9472 6.84187 20.9674 6.84126 20.9876 6.83999C21.2445 6.82418 21.4798 6.70929 21.6502 6.5165L21.8919 6.24309C22.0623 6.0503 22.1474 5.80269 22.1316 5.54584C22.1158 5.28899 22.0009 5.05369 21.8081 4.88324L21.7383 4.82162C21.5927 4.69284 21.3702 4.70664 21.2415 4.85231C21.1128 4.99798 21.1265 5.22038 21.2721 5.34911L21.3419 5.41068C21.3937 5.45658 21.4247 5.51994 21.4289 5.58907C21.4332 5.65824 21.4103 5.72488 21.3644 5.77679L21.1227 6.0502C21.0768 6.10211 21.0135 6.13304 20.9443 6.13726C20.875 6.14167 20.8084 6.11863 20.7566 6.07273L18.7422 4.29205C18.6351 4.19735 18.6249 4.03309 18.7197 3.92595L18.9614 3.65249C19.0073 3.60058 19.0706 3.56966 19.1398 3.56543C19.2091 3.56112 19.2756 3.58406 19.3275 3.62996L20.1461 4.35363C20.2917 4.48231 20.5142 4.4687 20.6429 4.32303C20.7717 4.1774 20.758 3.95495 20.6124 3.82622L19.7938 3.10256C19.601 2.93211 19.3535 2.84726 19.0966 2.86279C18.8397 2.87861 18.6044 2.99349 18.434 3.18628L18.1923 3.45975C17.8658 3.82923 17.8752 4.38113 18.1966 4.73982L17.4981 5.53008C16.2798 4.73095 14.9064 4.21007 13.4569 4.0009V2.94999C13.9892 2.9261 14.4153 2.48683 14.4153 1.94873V1.00351C14.4153 0.450155 13.9651 0 13.4117 0H10.589C10.0356 0 9.58547 0.450155 9.58547 1.00351V1.94873C9.58547 2.48683 10.0115 2.9261 10.5438 2.94999V4.0009C9.0943 4.21002 7.72093 4.73095 6.50267 5.53008L5.80406 4.73982C6.12544 4.38108 6.13497 3.82923 5.80833 3.45975L5.56664 3.18638C5.2149 2.78836 4.60485 2.75086 4.20684 3.10265L2.19254 4.88333C1.99975 5.05373 1.88487 5.28909 1.86905 5.54589C1.85324 5.80269 1.93842 6.05034 2.10877 6.24309L2.35046 6.5165C2.52087 6.70929 2.75622 6.82418 3.01303 6.83999C3.03325 6.84126 3.05343 6.84187 3.07352 6.84187C3.27095 6.84187 3.46036 6.78142 3.62134 6.66921L4.32168 7.46144C2.78593 9.27328 1.94851 11.5463 1.94851 13.9483C1.94851 16.6332 2.99407 19.1575 4.89258 21.056C6.7911 22.9545 9.31534 24 12.0003 24C13.1616 24 14.3009 23.8031 15.3867 23.4145C15.5697 23.349 15.6651 23.1476 15.5995 22.9646C15.534 22.7815 15.3326 22.6862 15.1496 22.7517C14.1401 23.1129 13.0805 23.2961 12.0003 23.2961C6.84587 23.2961 2.65241 19.1027 2.65241 13.9482C2.65241 8.79379 6.84596 4.60039 12.0004 4.60039C17.1548 4.60039 21.3482 8.79379 21.3482 13.9482C21.3482 17.3722 19.479 20.5188 16.47 22.1601C16.2994 22.2532 16.2365 22.467 16.3296 22.6376C16.4227 22.8083 16.6364 22.8712 16.8072 22.7781C20.0425 21.0133 22.0522 17.6299 22.0522 13.9482C22.0522 11.5463 21.2148 9.27323 19.679 7.4614L20.3793 6.66917ZM10.2894 1.94873V1.00351C10.2894 0.838315 10.4238 0.703954 10.589 0.703954H13.4117C13.5769 0.703954 13.7113 0.838362 13.7113 1.00351V1.94873C13.7113 2.11393 13.5769 2.24829 13.4117 2.24829H10.589C10.4238 2.24834 10.2894 2.11393 10.2894 1.94873ZM3.05634 6.13731C2.98717 6.13303 2.92381 6.10211 2.87796 6.05025L2.63627 5.77683C2.54152 5.66965 2.55165 5.50544 2.6588 5.41068L4.67309 3.63001C4.72237 3.58646 4.78366 3.5651 4.84471 3.5651C4.91652 3.5651 4.98804 3.59467 5.03924 3.65258L5.28093 3.92595C5.37568 4.03314 5.36555 4.19735 5.2584 4.2921L3.24411 6.07278C3.1922 6.11867 3.12561 6.14176 3.05634 6.13731ZM4.89268 6.84051C4.86072 6.87247 4.8296 6.90509 4.79811 6.93742L4.15357 6.20836L5.28135 5.21137L5.92467 5.93912C5.56397 6.21394 5.21889 6.51434 4.89268 6.84051ZM11.2477 3.92403V2.95229H12.753V3.92403C12.5038 3.90572 12.2528 3.89643 12.0004 3.89643C11.7479 3.89643 11.4969 3.90568 11.2477 3.92403ZM18.076 5.93912L18.7194 5.21137L19.8472 6.20836L19.2027 6.93747C19.1712 6.90513 19.1401 6.87256 19.1081 6.84056C18.7819 6.51434 18.4368 6.21394 18.076 5.93912Z" fill="black"/>
</g>
<defs>
<clipPath id="clip0">
<rect width="24" height="24" fill="white"/>
</clipPath>
</defs>
</svg>
