
<svg width="22" height="24" viewBox="0 0 22 24" fill="none" xmlns="http://www.w3.org/2000/svg">
<path d="M11 0C5.04803 0.0066132 0.224631 4.83001 0.218018 10.782V13.218C0.218018 19.1727 5.04532 24 11 24C16.9548 24 21.7821 19.1727 21.7821 13.218V10.782C21.7755 4.83001 16.9521 0.0066132 11 0Z" fill="#FE9C72"/>
<path d="M11 0C5.04803 0.0066132 0.224631 4.83001 0.218018 10.782V13.218C0.218018 19.1727 5.04532 24 11 24C16.9548 24 21.7821 19.1727 21.7821 13.218V10.782C21.7755 4.83001 16.9521 0.0066132 11 0ZM11 23.1614C6.34669 23.1616 2.3095 19.9489 1.26466 15.4143C3.0507 19.1718 6.83968 21.566 11 21.566C15.1604 21.566 18.9493 19.1717 20.7354 15.4143C19.6906 19.9489 15.6534 23.1616 11 23.1614Z" fill="#FEC772"/>
<path d="M10.9999 2.39502C6.36843 2.39502 2.61389 6.14955 2.61389 10.781C2.61389 15.4125 6.36843 19.167 10.9999 19.167C15.6314 19.167 19.3859 15.4125 19.3859 10.781C19.3806 6.15174 15.6292 2.4003 10.9999 2.39502Z" fill="#FE9C72"/>
<path d="M15.4974 8.65877L12.8898 8.29538L11.7189 6.02515C11.5795 5.7582 11.3033 5.59082 11.0021 5.59082C10.701 5.59082 10.4247 5.7582 10.2853 6.02515L9.10729 8.29738L6.50522 8.65877C6.19739 8.69945 5.94105 8.91483 5.84789 9.21104C5.75393 9.50388 5.8389 9.8246 6.06551 10.0325L7.93238 11.768L7.48592 14.2351C7.43211 14.5321 7.55181 14.8339 7.7946 15.0134C8.04009 15.1976 8.36899 15.2265 8.6428 15.0877L11.0037 13.9072L13.3561 15.0877C13.6298 15.2264 13.9586 15.1976 14.2039 15.0134C14.4468 14.8338 14.5665 14.5319 14.5126 14.2347L14.0698 11.7712L15.9362 10.0325C16.1632 9.82483 16.2484 9.50398 16.1543 9.21109C16.0613 8.91497 15.8051 8.69959 15.4974 8.65877Z" fill="#FFCF85"/>
<path d="M11 0C5.04803 0.0066132 0.224631 4.83001 0.218018 10.782V13.218C0.218018 19.1727 5.04532 24 11 24C16.9548 24 21.7821 19.1727 21.7821 13.218V10.782C21.7755 4.83001 16.9521 0.0066132 11 0ZM11 23.1614C6.34669 23.1616 2.3095 19.9489 1.26466 15.4143C3.0507 19.1718 6.83968 21.566 11 21.566C15.1604 21.566 18.9493 19.1717 20.7354 15.4143C19.6906 19.9489 15.6534 23.1616 11 23.1614ZM11 20.7654C5.4864 20.7654 1.01669 16.2957 1.01669 10.782C1.01669 5.26839 5.4864 0.798674 11 0.798674C16.5137 0.798674 20.9834 5.26839 20.9834 10.782C20.9772 16.2931 16.5112 20.7592 11 20.7654Z" fill="#212121"/>
<path d="M10.9999 2.39502C6.36843 2.39502 2.61389 6.14955 2.61389 10.781C2.61389 15.4125 6.36843 19.167 10.9999 19.167C15.6314 19.167 19.3859 15.4125 19.3859 10.781C19.3806 6.15174 15.6292 2.4003 10.9999 2.39502ZM10.9999 18.3684C6.80951 18.3684 3.41257 14.9714 3.41257 10.781C3.41257 6.59069 6.80956 3.19369 10.9999 3.19369C15.1902 3.19369 18.5872 6.59069 18.5872 10.781C18.5826 14.9695 15.1884 18.3637 10.9999 18.3684Z" fill="#212121"/>
<path d="M15.4974 8.65877L12.8898 8.29538L11.7189 6.02515C11.5795 5.7582 11.3033 5.59082 11.0021 5.59082C10.701 5.59082 10.4247 5.7582 10.2853 6.02515L9.10729 8.29738L6.50522 8.65877C6.19739 8.69945 5.94105 8.91483 5.84789 9.21104C5.75393 9.50388 5.8389 9.8246 6.06551 10.0325L7.93238 11.768L7.48592 14.2351C7.43211 14.5321 7.55181 14.8339 7.7946 15.0134C8.04009 15.1977 8.36899 15.2265 8.6428 15.0877L11.0037 13.9072L13.3561 15.0877C13.6298 15.2264 13.9586 15.1976 14.2039 15.0134C14.4468 14.8338 14.5665 14.5319 14.5126 14.2347L14.0698 11.7712L15.9362 10.0325C16.1632 9.82483 16.2484 9.50398 16.1543 9.21109C16.0613 8.91497 15.8051 8.69959 15.4974 8.65877ZM13.5259 11.1862C13.3266 11.3698 13.2351 11.6427 13.2835 11.9094L13.7148 14.374L11.3639 13.194C11.135 13.079 10.8652 13.079 10.6363 13.194L8.27384 14.376L8.71669 11.9094C8.76507 11.643 8.67396 11.3703 8.47509 11.1866L6.61298 9.45026L9.21463 9.09087C9.47373 9.05523 9.69943 8.89609 9.81999 8.66396L11.006 6.38935V6.39173L12.179 8.66196C12.2997 8.89428 12.5257 9.05347 12.7851 9.08887L15.3924 9.44826L13.5259 11.1862Z" fill="#212121"/>
</svg>
