<svg width="24" height="24" viewBox="0 0 24 24" fill="none" xmlns="http://www.w3.org/2000/svg">
<path d="M20.9248 9.33495L20.2784 9.6807L13.3849 13.3676C13.3848 13.3677 13.3847 13.3677 13.3847 13.3678C13.0365 13.5534 12.5866 13.6667 12 13.6667C11.4133 13.6667 10.9633 13.5534 10.6151 13.3676L3.23745 9.43289C3.16594 9.39355 3.11288 9.3586 3.07407 9.32963C3.11056 9.30443 3.15909 9.27463 3.22283 9.24151L3.22286 9.24156L3.23231 9.23652L10.6151 5.29902C10.9633 5.11331 11.4133 5 12 5C12.5867 5 13.0367 5.11331 13.3849 5.29902L20.7677 9.23652C20.8383 9.27416 20.889 9.30768 20.9248 9.33495Z" fill="#24282A" stroke="#24282A" stroke-width="2"/>
<path d="M14.953 16.4647L17.25 15.2332V16.4651C17.2365 16.4837 17.2078 16.5168 17.1509 16.5645C16.9794 16.7083 16.6517 16.8932 16.0952 17.0868C15.0127 17.4634 13.6558 17.6667 12 17.6667C10.3442 17.6667 8.98727 17.4634 7.9048 17.0868C7.34832 16.8932 7.02062 16.7083 6.84906 16.5645C6.79217 16.5168 6.76346 16.4837 6.75 16.4651V15.2332L9.04705 16.4647L9.04705 16.4647L9.04894 16.4657C9.79481 16.8635 10.8279 17 12 17C13.1721 17 14.2052 16.8635 14.9511 16.4657L14.953 16.4647ZM17.2605 16.447C17.2609 16.447 17.2599 16.4499 17.2563 16.4557C17.2583 16.4499 17.2601 16.447 17.2605 16.447ZM6.73951 16.447C6.73992 16.447 6.74172 16.4499 6.74372 16.4557C6.74011 16.4499 6.73911 16.447 6.73951 16.447Z" stroke="#24282A" stroke-width="2"/>
</svg>
