<svg width="20" height="20" viewBox="0 0 20 20" fill="none" xmlns="http://www.w3.org/2000/svg">
<path d="M16.3434 4.51226C15.9768 4.13856 15.5417 3.84211 15.0627 3.63985C14.5837 3.4376 14.0704 3.3335 13.5519 3.3335C13.0335 3.3335 12.5201 3.4376 12.0411 3.63985C11.5621 3.84211 11.127 4.13856 10.7605 4.51226L9.99981 5.28746L9.23916 4.51226C8.49882 3.75776 7.4947 3.33389 6.44771 3.33389C5.40071 3.33389 4.39659 3.75776 3.65626 4.51226C2.91592 5.26676 2.5 6.29008 2.5 7.3571C2.5 8.42412 2.91592 9.44744 3.65626 10.2019L4.41691 10.9771L9.99981 16.6668L15.5827 10.9771L16.3434 10.2019C16.71 9.82842 17.0009 9.38492 17.1994 8.89679C17.3979 8.40867 17.5 7.88547 17.5 7.3571C17.5 6.82873 17.3979 6.30554 17.1994 5.81741C17.0009 5.32928 16.71 4.88579 16.3434 4.51226V4.51226Z" stroke="white" stroke-width="2" stroke-linecap="round" stroke-linejoin="round"/>
</svg>
