<svg width="16" height="18" viewBox="0 0 16 18" fill="none" xmlns="http://www.w3.org/2000/svg">
<path d="M4.69727 1.66692C4.69727 1.45753 4.76044 1.25673 4.87288 1.10867C4.98532 0.960618 5.13783 0.877441 5.29685 0.877441H10.0935C10.2525 0.877441 10.4051 0.960618 10.5175 1.10867C10.6299 1.25673 10.6931 1.45753 10.6931 1.66692C10.6931 1.8763 10.6299 2.0771 10.5175 2.22516C10.4051 2.37321 10.2525 2.45639 10.0935 2.45639H5.29685C5.13783 2.45639 4.98532 2.37321 4.87288 2.22516C4.76044 2.0771 4.69727 1.8763 4.69727 1.66692Z" fill="white"/>
<path fill-rule="evenodd" clip-rule="evenodd" d="M12.7827 15.3755C14.132 14.043 14.89 12.2358 14.89 10.3514C14.89 8.46692 14.132 6.65967 12.7827 5.32718C11.4333 3.99468 9.60325 3.24609 7.69501 3.24609C5.78678 3.24609 3.9567 3.99468 2.60737 5.32718C1.25804 6.65967 0.5 8.46692 0.5 10.3514C0.5 12.2358 1.25804 14.043 2.60737 15.3755C3.9567 16.708 5.78678 17.4566 7.69501 17.4566C9.60325 17.4566 11.4333 16.708 12.7827 15.3755ZM7.32669 5.79959C7.47475 5.68115 7.67555 5.6146 7.88493 5.6146C8.09431 5.6146 8.29512 5.68115 8.44317 5.79959C8.59123 5.91803 8.67441 6.07868 8.67441 6.24618V11.2988C8.67441 11.4663 8.59123 11.627 8.44317 11.7454C8.29512 11.8639 8.09431 11.9304 7.88493 11.9304C7.67555 11.9304 7.47475 11.8639 7.32669 11.7454C7.17864 11.627 7.09546 11.4663 7.09546 11.2988V6.24618C7.09546 6.07868 7.17864 5.91803 7.32669 5.79959Z" fill="white"/>
<path d="M13.6344 2.82188C13.5791 2.76532 13.5129 2.72022 13.4397 2.68918C13.3666 2.65815 13.2879 2.64182 13.2083 2.64114C13.1287 2.64045 13.0497 2.65543 12.9761 2.68521C12.9024 2.71498 12.8354 2.75894 12.7791 2.81454C12.7228 2.87013 12.6783 2.93624 12.6482 3.00901C12.618 3.08178 12.6028 3.15974 12.6035 3.23836C12.6042 3.31698 12.6208 3.39468 12.6522 3.46692C12.6836 3.53916 12.7293 3.60449 12.7866 3.65911L14.469 5.32056C14.5243 5.37711 14.5905 5.42222 14.6636 5.45325C14.7368 5.48428 14.8154 5.50062 14.8951 5.5013C14.9747 5.50198 15.0536 5.487 15.1273 5.45723C15.201 5.42746 15.2679 5.38349 15.3242 5.3279C15.3805 5.2723 15.4251 5.20619 15.4552 5.13343C15.4853 5.06066 15.5005 4.98269 15.4998 4.90407C15.4991 4.82545 15.4826 4.74776 15.4512 4.67552C15.4197 4.60328 15.3741 4.53794 15.3168 4.48332L13.6344 2.82188Z" fill="white"/>
</svg>
